<svg width="192" height="58" viewBox="0 0 192 58" fill="none" xmlns="http://www.w3.org/2000/svg">
<g filter="url(#filter0_d)">
<rect x="8.5" y="4" width="175" height="44" rx="5" fill="url(#paint0_linear)"/>
<path d="M41.86 20.64C43.1184 21.8988 43.9753 23.5024 44.3223 25.2482C44.6693 26.9939 44.4909 28.8034 43.8096 30.4478C43.1284 32.0921 41.9748 33.4976 40.4948 34.4864C39.0148 35.4752 37.2749 36.0029 35.495 36.0029C33.7151 36.0029 31.9752 35.4752 30.4952 34.4864C29.0152 33.4976 27.8616 32.0921 27.1804 30.4478C26.4991 28.8034 26.3207 26.9939 26.6677 25.2482C27.0147 23.5024 27.8716 21.8988 29.13 20.64M35.5 16V26" stroke="#F8FAFC" stroke-width="2" stroke-linecap="round" stroke-linejoin="round"/>
<path d="M67.7627 29.072C67.7627 29.68 67.6027 30.2027 67.2827 30.64C66.9627 31.0773 66.536 31.4133 66.0027 31.648C65.48 31.8827 64.8987 32 64.2587 32H58.8347V20.64H64.6907C65.224 20.64 65.6827 20.784 66.0667 21.072C66.4507 21.3493 66.7494 21.712 66.9627 22.16C67.176 22.608 67.2827 23.0667 67.2827 23.536C67.2827 24.0907 67.1387 24.6133 66.8507 25.104C66.5734 25.584 66.1734 25.9413 65.6507 26.176C66.2907 26.368 66.8027 26.72 67.1867 27.232C67.5707 27.7333 67.7627 28.3467 67.7627 29.072ZM60.6267 22.192V25.536H63.9227C64.3707 25.536 64.744 25.3813 65.0427 25.072C65.3414 24.752 65.4907 24.352 65.4907 23.872C65.4907 23.3813 65.352 22.9813 65.0747 22.672C64.7974 22.352 64.4454 22.192 64.0187 22.192H60.6267ZM65.9227 28.736C65.9227 28.2667 65.7734 27.856 65.4747 27.504C65.1867 27.152 64.8187 26.976 64.3707 26.976H60.6267V30.448H64.2587C64.728 30.448 65.1227 30.2827 65.4427 29.952C65.7627 29.6107 65.9227 29.2053 65.9227 28.736ZM73.1996 32.16C72.3356 32.16 71.5782 31.9627 70.9276 31.568C70.2769 31.1733 69.7702 30.6507 69.4076 30C69.0449 29.3387 68.8636 28.6187 68.8636 27.84C68.8636 27.0507 69.0449 26.3253 69.4076 25.664C69.7702 25.0027 70.2769 24.4747 70.9276 24.08C71.5782 23.6853 72.3409 23.488 73.2156 23.488C74.0902 23.488 74.8476 23.6907 75.4876 24.096C76.1276 24.4907 76.6182 25.0133 76.9596 25.664C77.3116 26.3147 77.4876 27.0133 77.4876 27.76C77.4876 28.0267 77.4716 28.24 77.4396 28.4H70.7356C70.7676 28.8907 70.9009 29.3227 71.1356 29.696C71.3809 30.0587 71.6849 30.3467 72.0476 30.56C72.4209 30.7627 72.8262 30.864 73.2636 30.864C73.7329 30.864 74.1756 30.7467 74.5916 30.512C75.0076 30.2773 75.2956 29.968 75.4556 29.584L76.9596 30.016C76.6716 30.6453 76.1916 31.1627 75.5196 31.568C74.8582 31.9627 74.0849 32.16 73.1996 32.16ZM70.6876 27.232H75.7436C75.7009 26.752 75.5622 26.3307 75.3276 25.968C75.0929 25.5947 74.7889 25.3067 74.4156 25.104C74.0529 24.8907 73.6476 24.784 73.1996 24.784C72.7622 24.784 72.3569 24.8907 71.9836 25.104C71.6209 25.3067 71.3222 25.5947 71.0876 25.968C70.8529 26.3307 70.7196 26.752 70.6876 27.232ZM82.2352 32.08C81.4779 32.08 80.8112 31.8827 80.2352 31.488C79.6699 31.0933 79.2219 30.576 78.8912 29.936C78.5712 29.2853 78.4112 28.5813 78.4112 27.824C78.4112 27.0347 78.5765 26.3093 78.9072 25.648C79.2379 24.9867 79.6912 24.464 80.2672 24.08C80.8539 23.6853 81.5312 23.488 82.2992 23.488C82.9712 23.488 83.5579 23.648 84.0592 23.968C84.5712 24.288 84.9925 24.704 85.3232 25.216V23.632H86.8752V31.76C86.8752 32.5707 86.6779 33.2587 86.2832 33.824C85.8992 34.3893 85.3712 34.8213 84.6992 35.12C84.0272 35.4187 83.2699 35.568 82.4272 35.568C81.4992 35.568 80.7259 35.408 80.1072 35.088C79.4992 34.768 78.9872 34.3307 78.5712 33.776L79.5632 32.848C79.8832 33.296 80.2939 33.6373 80.7952 33.872C81.3072 34.1067 81.8512 34.224 82.4272 34.224C82.9072 34.224 83.3499 34.1333 83.7552 33.952C84.1712 33.7813 84.5019 33.5147 84.7472 33.152C84.9925 32.7893 85.1152 32.3253 85.1152 31.76V30.48C84.8165 30.9813 84.4059 31.376 83.8832 31.664C83.3605 31.9413 82.8112 32.08 82.2352 32.08ZM82.8112 30.656C83.1632 30.656 83.4992 30.5813 83.8192 30.432C84.1392 30.272 84.4112 30.064 84.6352 29.808C84.8699 29.552 85.0299 29.28 85.1152 28.992V26.8C84.9019 26.2667 84.5659 25.8347 84.1072 25.504C83.6592 25.1627 83.1845 24.992 82.6832 24.992C82.1712 24.992 81.7285 25.1307 81.3552 25.408C80.9925 25.6853 80.7099 26.048 80.5072 26.496C80.3045 26.9333 80.2032 27.392 80.2032 27.872C80.2032 28.384 80.3152 28.8533 80.5392 29.28C80.7739 29.696 81.0885 30.032 81.4832 30.288C81.8779 30.5333 82.3205 30.656 82.8112 30.656ZM88.9857 22.256V20.32H90.7457V22.256H88.9857ZM88.9857 32V23.632H90.7457V32H88.9857ZM100.365 32H98.6047V27.312C98.6047 26.5227 98.4767 25.952 98.2207 25.6C97.9754 25.2373 97.6074 25.056 97.1167 25.056C96.7754 25.056 96.434 25.1413 96.0927 25.312C95.762 25.4827 95.4634 25.7173 95.1967 26.016C94.93 26.3147 94.738 26.6507 94.6207 27.024V32H92.8607V23.632H94.4607V25.312C94.7807 24.7573 95.2447 24.3147 95.8527 23.984C96.4607 23.6533 97.1327 23.488 97.8687 23.488C98.53 23.488 99.042 23.648 99.4047 23.968C99.7674 24.2773 100.018 24.688 100.157 25.2C100.295 25.712 100.365 26.2773 100.365 26.896V32ZM119.161 32H117.401V27.312C117.401 26.544 117.273 25.9787 117.017 25.616C116.761 25.2427 116.387 25.056 115.897 25.056C115.406 25.056 114.947 25.2427 114.521 25.616C114.105 25.9787 113.811 26.4533 113.641 27.04V32H111.881V27.312C111.881 26.5227 111.753 25.952 111.497 25.6C111.241 25.2373 110.873 25.056 110.393 25.056C109.902 25.056 109.443 25.2373 109.017 25.6C108.601 25.9627 108.302 26.4373 108.121 27.024V32H106.361V23.632H107.961V25.312C108.281 24.7253 108.713 24.2773 109.257 23.968C109.801 23.648 110.419 23.488 111.113 23.488C111.806 23.488 112.35 23.6693 112.745 24.032C113.15 24.3947 113.401 24.848 113.497 25.392C114.222 24.1227 115.273 23.488 116.649 23.488C117.31 23.488 117.822 23.648 118.185 23.968C118.547 24.2773 118.798 24.6933 118.937 25.216C119.086 25.728 119.161 26.288 119.161 26.896V32ZM124.981 32.16C124.117 32.16 123.359 31.9627 122.709 31.568C122.058 31.1733 121.551 30.6507 121.189 30C120.826 29.3387 120.645 28.6187 120.645 27.84C120.645 27.0507 120.826 26.3253 121.189 25.664C121.551 25.0027 122.058 24.4747 122.709 24.08C123.359 23.6853 124.122 23.488 124.997 23.488C125.871 23.488 126.629 23.6907 127.269 24.096C127.909 24.4907 128.399 25.0133 128.741 25.664C129.093 26.3147 129.269 27.0133 129.269 27.76C129.269 28.0267 129.253 28.24 129.221 28.4H122.517C122.549 28.8907 122.682 29.3227 122.917 29.696C123.162 30.0587 123.466 30.3467 123.829 30.56C124.202 30.7627 124.607 30.864 125.045 30.864C125.514 30.864 125.957 30.7467 126.373 30.512C126.789 30.2773 127.077 29.968 127.237 29.584L128.741 30.016C128.453 30.6453 127.973 31.1627 127.301 31.568C126.639 31.9627 125.866 32.16 124.981 32.16ZM122.469 27.232H127.525C127.482 26.752 127.343 26.3307 127.109 25.968C126.874 25.5947 126.57 25.3067 126.197 25.104C125.834 24.8907 125.429 24.784 124.981 24.784C124.543 24.784 124.138 24.8907 123.765 25.104C123.402 25.3067 123.103 25.5947 122.869 25.968C122.634 26.3307 122.501 26.752 122.469 27.232ZM134.496 32.16C133.632 32.16 132.875 31.9627 132.224 31.568C131.574 31.1733 131.067 30.6507 130.704 30C130.342 29.3387 130.16 28.6187 130.16 27.84C130.16 27.0507 130.342 26.3253 130.704 25.664C131.067 25.0027 131.574 24.4747 132.224 24.08C132.875 23.6853 133.638 23.488 134.512 23.488C135.387 23.488 136.144 23.6907 136.784 24.096C137.424 24.4907 137.915 25.0133 138.256 25.664C138.608 26.3147 138.784 27.0133 138.784 27.76C138.784 28.0267 138.768 28.24 138.736 28.4H132.032C132.064 28.8907 132.198 29.3227 132.432 29.696C132.678 30.0587 132.982 30.3467 133.344 30.56C133.718 30.7627 134.123 30.864 134.56 30.864C135.03 30.864 135.472 30.7467 135.888 30.512C136.304 30.2773 136.592 29.968 136.752 29.584L138.256 30.016C137.968 30.6453 137.488 31.1627 136.816 31.568C136.155 31.9627 135.382 32.16 134.496 32.16ZM131.984 27.232H137.04C136.998 26.752 136.859 26.3307 136.624 25.968C136.39 25.5947 136.086 25.3067 135.712 25.104C135.35 24.8907 134.944 24.784 134.496 24.784C134.059 24.784 133.654 24.8907 133.28 25.104C132.918 25.3067 132.619 25.5947 132.384 25.968C132.15 26.3307 132.016 26.752 131.984 27.232ZM144.798 31.568C144.574 31.6747 144.265 31.7973 143.87 31.936C143.475 32.064 143.054 32.128 142.606 32.128C142.051 32.128 141.571 31.9787 141.166 31.68C140.771 31.3813 140.574 30.896 140.574 30.224V24.992H139.47V23.632H140.574V20.88H142.334V23.632H144.158V24.992H142.334V29.664C142.355 29.9627 142.446 30.1813 142.606 30.32C142.777 30.448 142.985 30.512 143.23 30.512C143.475 30.512 143.71 30.4693 143.934 30.384C144.158 30.2987 144.323 30.2293 144.43 30.176L144.798 31.568ZM146.017 22.256V20.32H147.777V22.256H146.017ZM146.017 32V23.632H147.777V32H146.017ZM157.396 32H155.636V27.312C155.636 26.5227 155.508 25.952 155.252 25.6C155.007 25.2373 154.639 25.056 154.148 25.056C153.807 25.056 153.465 25.1413 153.124 25.312C152.793 25.4827 152.495 25.7173 152.228 26.016C151.961 26.3147 151.769 26.6507 151.652 27.024V32H149.892V23.632H151.492V25.312C151.812 24.7573 152.276 24.3147 152.884 23.984C153.492 23.6533 154.164 23.488 154.9 23.488C155.561 23.488 156.073 23.648 156.436 23.968C156.799 24.2773 157.049 24.688 157.188 25.2C157.327 25.712 157.396 26.2773 157.396 26.896V32ZM162.751 32.08C161.993 32.08 161.327 31.8827 160.751 31.488C160.185 31.0933 159.737 30.576 159.407 29.936C159.087 29.2853 158.927 28.5813 158.927 27.824C158.927 27.0347 159.092 26.3093 159.423 25.648C159.753 24.9867 160.207 24.464 160.783 24.08C161.369 23.6853 162.047 23.488 162.815 23.488C163.487 23.488 164.073 23.648 164.575 23.968C165.087 24.288 165.508 24.704 165.839 25.216V23.632H167.391V31.76C167.391 32.5707 167.193 33.2587 166.799 33.824C166.415 34.3893 165.887 34.8213 165.215 35.12C164.543 35.4187 163.785 35.568 162.943 35.568C162.015 35.568 161.241 35.408 160.623 35.088C160.015 34.768 159.503 34.3307 159.087 33.776L160.079 32.848C160.399 33.296 160.809 33.6373 161.311 33.872C161.823 34.1067 162.367 34.224 162.943 34.224C163.423 34.224 163.865 34.1333 164.271 33.952C164.687 33.7813 165.017 33.5147 165.263 33.152C165.508 32.7893 165.631 32.3253 165.631 31.76V30.48C165.332 30.9813 164.921 31.376 164.399 31.664C163.876 31.9413 163.327 32.08 162.751 32.08ZM163.327 30.656C163.679 30.656 164.015 30.5813 164.335 30.432C164.655 30.272 164.927 30.064 165.151 29.808C165.385 29.552 165.545 29.28 165.631 28.992V26.8C165.417 26.2667 165.081 25.8347 164.623 25.504C164.175 25.1627 163.7 24.992 163.199 24.992C162.687 24.992 162.244 25.1307 161.871 25.408C161.508 25.6853 161.225 26.048 161.023 26.496C160.82 26.9333 160.719 27.392 160.719 27.872C160.719 28.384 160.831 28.8533 161.055 29.28C161.289 29.696 161.604 30.032 161.999 30.288C162.393 30.5333 162.836 30.656 163.327 30.656Z" fill="#DDE4EE"/>
</g>
<defs>
<filter id="filter0_d" x="0.5" y="0" width="191" height="60" filterUnits="userSpaceOnUse" color-interpolation-filters="sRGB">
<feFlood flood-opacity="0" result="BackgroundImageFix"/>
<feColorMatrix in="SourceAlpha" type="matrix" values="0 0 0 0 0 0 0 0 0 0 0 0 0 0 0 0 0 0 127 0"/>
<feOffset dy="4"/>
<feGaussianBlur stdDeviation="4"/>
<feColorMatrix type="matrix" values="0 0 0 0 0 0 0 0 0 0 0 0 0 0 0 0 0 0 0.16 0"/>
<feBlend mode="normal" in2="BackgroundImageFix" result="effect1_dropShadow"/>
<feBlend mode="normal" in="SourceGraphic" in2="effect1_dropShadow" result="shape"/>
</filter>
<linearGradient id="paint0_linear" x1="96" y1="4" x2="96" y2="48" gradientUnits="userSpaceOnUse">
<stop stop-color="#745FF5"/>
<stop offset="1" stop-color="#583FF1"/>
</linearGradient>
</defs>
</svg>
