<?xml version="1.0" encoding="utf-8"?>
<!-- Generator: Adobe Illustrator 23.1.0, SVG Export Plug-In . SVG Version: 6.00 Build 0)  -->
<svg version="1.1" id="Layer_1" xmlns="http://www.w3.org/2000/svg" xmlns:xlink="http://www.w3.org/1999/xlink" x="0px" y="0px"
	 viewBox="0 0 58 28" style="enable-background:new 0 0 58 28;" xml:space="preserve">
<style type="text/css">
	.st0{fill:#21262B;}
	.st1{fill:#665DD7;}
	.st2{fill:#DDE4EE;}
</style>
<g>
	<g>
		<path class="st0" d="M4.59,27.5c-2.25,0-4.09-1.83-4.09-4.09V4.59c0-2.25,1.83-4.09,4.09-4.09h48.82c2.25,0,4.09,1.83,4.09,4.09
			v18.82c0,2.25-1.83,4.09-4.09,4.09H4.59z"/>
		<path class="st1" d="M53.41,1C55.39,1,57,2.61,57,4.59v18.82c0,1.98-1.61,3.59-3.59,3.59H4.59C2.61,27,1,25.39,1,23.41V4.59
			C1,2.61,2.61,1,4.59,1H53.41 M53.41,0H4.59C2.05,0,0,2.05,0,4.59v18.82C0,25.95,2.05,28,4.59,28h48.82c2.53,0,4.59-2.05,4.59-4.59
			V4.59C58,2.05,55.95,0,53.41,0L53.41,0z"/>
	</g>
	<g>
		<g>
			<g>
				<path class="st2" d="M45.52,19.21H37.2c-1.15,0-2.08-0.93-2.08-2.08v-6.25c0-1.15,0.93-2.08,2.08-2.08h8.33
					c1.15,0,2.08,0.93,2.08,2.08v6.25C47.61,18.27,46.67,19.21,45.52,19.21z M37.2,9.84c-0.57,0-1.04,0.47-1.04,1.04v6.25
					c0,0.57,0.47,1.04,1.04,1.04h8.33c0.57,0,1.04-0.47,1.04-1.04v-6.25c0-0.57-0.47-1.04-1.04-1.04H37.2z"/>
			</g>
			<g>
				<path class="st2" d="M50.73,18.27c-0.19,0-0.38-0.05-0.55-0.16L46.81,16c-0.24-0.15-0.32-0.47-0.17-0.72
					c0.15-0.24,0.48-0.32,0.72-0.17l3.37,2.11v-6.45l-3.37,2.1c-0.24,0.15-0.56,0.08-0.72-0.17c-0.15-0.24-0.08-0.57,0.17-0.72
					l3.37-2.11c0.32-0.2,0.73-0.21,1.06-0.03c0.33,0.19,0.54,0.53,0.54,0.91v6.45c0,0.38-0.21,0.73-0.54,0.91
					C51.08,18.22,50.9,18.27,50.73,18.27L50.73,18.27z"/>
			</g>
		</g>
		<g>
			<g>
				<path class="st2" d="M6.83,14.33c0-2.81,1.86-4.44,4-4.44c1.1,0,1.98,0.52,2.55,1.1l-1.01,1.23c-0.43-0.4-0.88-0.67-1.5-0.67
					c-1.16,0-2.08,1.02-2.08,2.72c0,1.74,0.81,2.75,2.05,2.75c0.7,0,1.24-0.34,1.66-0.79l1.01,1.2c-0.7,0.82-1.64,1.24-2.74,1.24
					C8.62,18.67,6.83,17.18,6.83,14.33z"/>
				<path class="st2" d="M16.37,10.04h2.29l2.66,8.47H19.3l-1.11-4.29c-0.24-0.85-0.46-1.85-0.69-2.73h-0.05
					c-0.2,0.89-0.43,1.89-0.67,2.73l-1.11,4.29h-1.96L16.37,10.04z M15.47,15.01h4.08v1.49h-4.08V15.01z"/>
				<path class="st2" d="M22.24,10.04h2.09l1.38,3.76c0.17,0.5,0.32,1.04,0.49,1.56h0.05c0.17-0.52,0.31-1.06,0.48-1.56l1.33-3.76
					h2.09v8.47h-1.74v-3.11c0-0.83,0.15-2.06,0.24-2.88H28.6l-0.7,2.01l-1.2,3.25h-1.06l-1.2-3.25l-0.68-2.01h-0.05
					c0.09,0.82,0.24,2.05,0.24,2.88v3.11h-1.72V10.04z"/>
			</g>
		</g>
	</g>
</g>
</svg>
