<?xml version="1.0" encoding="utf-8"?>
<!-- Generator: Adobe Illustrator 23.1.0, SVG Export Plug-In . SVG Version: 6.00 Build 0)  -->
<svg version="1.1" id="Layer_1" xmlns="http://www.w3.org/2000/svg" xmlns:xlink="http://www.w3.org/1999/xlink" x="0px" y="0px"
	 viewBox="0 0 400 400" style="enable-background:new 0 0 400 400;" xml:space="preserve">
<style type="text/css">
	.st0{fill:#21262B;}
	.st1{display:none;fill:#DDE4EE;}
	.st2{fill:none;stroke:#DDE4EE;stroke-width:1.33;stroke-linecap:round;stroke-linejoin:round;}
	.st3{fill:none;stroke:url(#SVGID_1_);}
	.st4{fill:#DDE4EE;}
	.st5{font-family:'Poppins-Regular';}
	.st6{font-size:15.3222px;}
</style>
<path class="st0" d="M171,184.5h58c1.93,0,3.5,1.57,3.5,3.5v24c0,1.93-1.57,3.5-3.5,3.5h-58c-1.93,0-3.5-1.57-3.5-3.5v-24
	C167.5,186.07,169.07,184.5,171,184.5z"/>
<polygon class="st1" points="190.22,207 190.22,198.9 186.88,205.05 185.82,205.05 182.46,198.9 182.46,207 180.67,207 
	180.67,195.64 182.59,195.64 186.35,202.58 190.11,195.64 192.03,195.64 192.03,207 "/>
<rect x="194.59" y="195.64" class="st1" width="1.79" height="11.36"/>
<path class="st1" d="M198.23,201.24c0-0.69,0.12-1.38,0.37-2.05c0.25-0.67,0.6-1.28,1.07-1.82c0.48-0.54,1.06-0.98,1.73-1.3
	c0.68-0.33,1.46-0.5,2.34-0.5c1.02,0,1.91,0.23,2.66,0.69c0.75,0.46,1.3,1.06,1.66,1.79l-1.41,0.94c-0.21-0.46-0.49-0.82-0.82-1.07
	c-0.32-0.27-0.67-0.45-1.06-0.56c-0.37-0.12-0.74-0.18-1.1-0.18c-0.6,0-1.12,0.12-1.57,0.37c-0.45,0.23-0.83,0.55-1.14,0.94
	c-0.3,0.39-0.53,0.84-0.69,1.33c-0.15,0.49-0.22,0.98-0.22,1.47c0,0.74,0.15,1.42,0.46,2.06c0.32,0.63,0.75,1.14,1.3,1.54
	c0.55,0.38,1.19,0.58,1.9,0.58c0.36,0,0.74-0.06,1.14-0.19c0.39-0.13,0.76-0.33,1.09-0.59c0.33-0.28,0.6-0.64,0.8-1.09l1.49,0.85
	c-0.23,0.57-0.6,1.05-1.1,1.44c-0.49,0.39-1.05,0.69-1.66,0.9c-0.61,0.2-1.21,0.3-1.81,0.3c-0.8,0-1.53-0.17-2.19-0.5
	c-0.66-0.34-1.23-0.79-1.71-1.34c-0.48-0.57-0.85-1.19-1.12-1.89C198.37,202.66,198.23,201.95,198.23,201.24z"/>
<path class="st2" d="M221.67,198.67V200c0,1.24-0.49,2.42-1.37,3.3c-0.88,0.88-2.06,1.37-3.3,1.37 M217,204.67
	c-1.24,0-2.42-0.49-3.3-1.37c-0.88-0.88-1.37-2.06-1.37-3.3v-1.33 M217,204.67v2.67 M214.33,207.33h5.33 M217,192.67
	c-0.53,0-1.04,0.21-1.41,0.59s-0.59,0.88-0.59,1.41V200c0,0.53,0.21,1.04,0.59,1.41S216.47,202,217,202s1.04-0.21,1.41-0.59
	c0.38-0.38,0.59-0.88,0.59-1.41v-5.33c0-0.53-0.21-1.04-0.59-1.41C218.04,192.88,217.53,192.67,217,192.67z"/>
<linearGradient id="SVGID_1_" gradientUnits="userSpaceOnUse" x1="591.96" y1="-65.66" x2="591.96" y2="-97.66" gradientTransform="matrix(1 0 0 -1 -391.96 118.34)">
	<stop  offset="0" style="stop-color:#745FF5"/>
	<stop  offset="1" style="stop-color:#583FF1"/>
</linearGradient>
<path class="st3" d="M171,184.5h58c1.93,0,3.5,1.57,3.5,3.5v24c0,1.93-1.57,3.5-3.5,3.5h-58c-1.93,0-3.5-1.57-3.5-3.5v-24
	C167.5,186.07,169.07,184.5,171,184.5z"/>
<text transform="matrix(1 0 0 1 177.9414 206.0078)" class="st4 st5 st6">MIC</text>
</svg>
