<svg width="113" height="58" viewBox="0 0 113 58" fill="none" xmlns="http://www.w3.org/2000/svg">
<g filter="url(#filter0_d)">
<rect x="8" y="4" width="97" height="44" rx="5" fill="#424B57"/>
<path d="M31.2734 23.312C31.1348 23.152 30.9054 22.9867 30.5854 22.816C30.2761 22.6347 29.9134 22.48 29.4974 22.352C29.0814 22.224 28.6494 22.16 28.2014 22.16C27.4441 22.16 26.8841 22.2987 26.5214 22.576C26.1694 22.8533 25.9934 23.2373 25.9934 23.728C25.9934 24.0907 26.0948 24.3787 26.2974 24.592C26.5001 24.7947 26.8094 24.9707 27.2254 25.12C27.6414 25.2587 28.1641 25.4027 28.7934 25.552C29.5614 25.7333 30.2228 25.952 30.7774 26.208C31.3428 26.4533 31.7748 26.784 32.0734 27.2C32.3828 27.616 32.5374 28.1653 32.5374 28.848C32.5374 29.6267 32.3508 30.256 31.9774 30.736C31.6041 31.216 31.0974 31.568 30.4574 31.792C29.8281 32.0053 29.1348 32.112 28.3774 32.112C27.5134 32.112 26.6761 31.9787 25.8654 31.712C25.0548 31.4453 24.3294 31.0667 23.6894 30.576L24.5054 29.04C24.6868 29.2213 24.9748 29.4293 25.3694 29.664C25.7641 29.888 26.2228 30.0853 26.7454 30.256C27.2788 30.416 27.8334 30.496 28.4094 30.496C29.1134 30.496 29.6574 30.3733 30.0414 30.128C30.4254 29.872 30.6174 29.5093 30.6174 29.04C30.6174 28.656 30.4894 28.352 30.2334 28.128C29.9881 27.8933 29.6308 27.7013 29.1614 27.552C28.7028 27.392 28.1481 27.2267 27.4974 27.056C26.7508 26.864 26.1268 26.6453 25.6254 26.4C25.1241 26.1547 24.7454 25.8453 24.4894 25.472C24.2441 25.0987 24.1214 24.6133 24.1214 24.016C24.1214 23.2693 24.3028 22.64 24.6654 22.128C25.0281 21.6053 25.5188 21.216 26.1374 20.96C26.7668 20.6933 27.4708 20.56 28.2494 20.56C29.0174 20.56 29.7268 20.6827 30.3774 20.928C31.0281 21.1733 31.5988 21.4773 32.0894 21.84L31.2734 23.312ZM39.9191 32L37.2311 28.144L35.8551 29.456V32H34.0951V20.32H35.8551V27.68L39.7271 23.648H41.6151L38.3671 27.152L41.7911 32H39.9191ZM42.8607 22.256V20.32H44.6207V22.256H42.8607ZM42.8607 32V23.632H44.6207V32H42.8607ZM51.4877 32.16C50.8157 32.16 50.2237 32 49.7117 31.68C49.1997 31.36 48.7944 30.944 48.4957 30.432V35.408H46.7357V23.632H48.2877V25.136C48.6077 24.6347 49.0237 24.2347 49.5357 23.936C50.0477 23.6373 50.6184 23.488 51.2477 23.488C52.0157 23.488 52.693 23.6907 53.2797 24.096C53.877 24.4907 54.3464 25.0187 54.6877 25.68C55.029 26.3307 55.1997 27.04 55.1997 27.808C55.1997 28.6187 55.0397 29.3547 54.7197 30.016C54.3997 30.6667 53.9624 31.1893 53.4077 31.584C52.853 31.968 52.213 32.16 51.4877 32.16ZM50.9117 30.656C51.413 30.656 51.845 30.5227 52.2077 30.256C52.581 29.9787 52.869 29.6267 53.0717 29.2C53.285 28.7627 53.3917 28.2987 53.3917 27.808C53.3917 27.296 53.2744 26.8267 53.0397 26.4C52.8157 25.9733 52.5064 25.632 52.1117 25.376C51.7277 25.12 51.285 24.992 50.7837 24.992C50.485 24.992 50.1704 25.0667 49.8397 25.216C49.5197 25.3653 49.237 25.5627 48.9917 25.808C48.7464 26.0533 48.581 26.3307 48.4957 26.64V28.832C48.709 29.344 49.0344 29.776 49.4717 30.128C49.9197 30.48 50.3997 30.656 50.9117 30.656Z" fill="#DDE4EE"/>
<path d="M85 19V33M71 18L81 26L71 34V18Z" stroke="#F8FAFC" stroke-width="2" stroke-linecap="round" stroke-linejoin="round"/>
</g>
<defs>
<filter id="filter0_d" x="0" y="0" width="113" height="60" filterUnits="userSpaceOnUse" color-interpolation-filters="sRGB">
<feFlood flood-opacity="0" result="BackgroundImageFix"/>
<feColorMatrix in="SourceAlpha" type="matrix" values="0 0 0 0 0 0 0 0 0 0 0 0 0 0 0 0 0 0 127 0"/>
<feOffset dy="4"/>
<feGaussianBlur stdDeviation="4"/>
<feColorMatrix type="matrix" values="0 0 0 0 0 0 0 0 0 0 0 0 0 0 0 0 0 0 0.16 0"/>
<feBlend mode="normal" in2="BackgroundImageFix" result="effect1_dropShadow"/>
<feBlend mode="normal" in="SourceGraphic" in2="effect1_dropShadow" result="shape"/>
</filter>
</defs>
</svg>
