<svg width="94" height="32" viewBox="0 0 94 32" fill="none" xmlns="http://www.w3.org/2000/svg">
<rect x="0.5" y="0.5" width="93" height="31" rx="3.5" fill="#21262B"/>
<path d="M16.2188 13.312C16.0801 13.152 15.8508 12.9867 15.5308 12.816C15.2214 12.6347 14.8588 12.48 14.4428 12.352C14.0268 12.224 13.5948 12.16 13.1468 12.16C12.3894 12.16 11.8294 12.2987 11.4668 12.576C11.1148 12.8533 10.9388 13.2373 10.9388 13.728C10.9388 14.0907 11.0401 14.3787 11.2428 14.592C11.4454 14.7947 11.7548 14.9707 12.1708 15.12C12.5868 15.2587 13.1094 15.4027 13.7388 15.552C14.5068 15.7333 15.1681 15.952 15.7228 16.208C16.2881 16.4533 16.7201 16.784 17.0188 17.2C17.3281 17.616 17.4828 18.1653 17.4828 18.848C17.4828 19.6267 17.2961 20.256 16.9228 20.736C16.5494 21.216 16.0428 21.568 15.4028 21.792C14.7734 22.0053 14.0801 22.112 13.3228 22.112C12.4588 22.112 11.6214 21.9787 10.8108 21.712C10.0001 21.4453 9.27475 21.0667 8.63475 20.576L9.45075 19.04C9.63208 19.2213 9.92008 19.4293 10.3148 19.664C10.7094 19.888 11.1681 20.0853 11.6908 20.256C12.2241 20.416 12.7788 20.496 13.3548 20.496C14.0588 20.496 14.6028 20.3733 14.9868 20.128C15.3708 19.872 15.5628 19.5093 15.5628 19.04C15.5628 18.656 15.4348 18.352 15.1788 18.128C14.9334 17.8933 14.5761 17.7013 14.1068 17.552C13.6481 17.392 13.0934 17.2267 12.4427 17.056C11.6961 16.864 11.0721 16.6453 10.5707 16.4C10.0694 16.1547 9.69075 15.8453 9.43475 15.472C9.18942 15.0987 9.06675 14.6133 9.06675 14.016C9.06675 13.2693 9.24808 12.64 9.61075 12.128C9.97342 11.6053 10.4641 11.216 11.0828 10.96C11.7121 10.6933 12.4161 10.56 13.1948 10.56C13.9628 10.56 14.6721 10.6827 15.3228 10.928C15.9734 11.1733 16.5441 11.4773 17.0347 11.84L16.2188 13.312ZM24 22.08C23.1893 22.08 22.448 21.92 21.776 21.6C21.1147 21.28 20.544 20.848 20.064 20.304C19.584 19.7493 19.2107 19.1307 18.944 18.448C18.688 17.7547 18.56 17.0453 18.56 16.32C18.56 15.5627 18.6987 14.8427 18.976 14.16C19.2533 13.4667 19.6373 12.8533 20.128 12.32C20.6187 11.776 21.1947 11.3493 21.856 11.04C22.528 10.72 23.2533 10.56 24.032 10.56C24.8427 10.56 25.5787 10.7253 26.24 11.056C26.912 11.3867 27.4827 11.8293 27.952 12.384C28.432 12.9387 28.8 13.5573 29.056 14.24C29.3227 14.9227 29.456 15.6213 29.456 16.336C29.456 17.0933 29.3173 17.8187 29.04 18.512C28.7733 19.1947 28.3947 19.808 27.904 20.352C27.4133 20.8853 26.832 21.3067 26.16 21.616C25.4987 21.9253 24.7787 22.08 24 22.08ZM20.384 16.32C20.384 17.0347 20.5333 17.712 20.832 18.352C21.1307 18.9813 21.5467 19.4933 22.08 19.888C22.624 20.272 23.2693 20.464 24.016 20.464C24.5813 20.464 25.088 20.3467 25.536 20.112C25.984 19.8773 26.3627 19.5627 26.672 19.168C26.9813 18.7627 27.216 18.3147 27.376 17.824C27.536 17.3333 27.616 16.832 27.616 16.32C27.616 15.6053 27.4667 14.9333 27.168 14.304C26.88 13.6747 26.464 13.168 25.92 12.784C25.376 12.3893 24.7413 12.192 24.016 12.192C23.44 12.192 22.928 12.3093 22.48 12.544C22.032 12.7787 21.6533 13.0933 21.344 13.488C21.0347 13.8827 20.7947 14.3253 20.624 14.816C20.464 15.3067 20.384 15.808 20.384 16.32ZM36.0473 22.08C35.1513 22.08 34.3886 21.9253 33.7593 21.616C33.1299 21.3067 32.6233 20.8853 32.2393 20.352C31.8553 19.808 31.5779 19.2 31.4073 18.528C31.2366 17.8453 31.1513 17.136 31.1513 16.4V10.64H32.9433V16.4C32.9433 16.9227 32.9966 17.4293 33.1033 17.92C33.2099 18.4 33.3806 18.832 33.6153 19.216C33.8499 19.6 34.1646 19.904 34.5593 20.128C34.9646 20.352 35.4606 20.464 36.0473 20.464C36.6446 20.464 37.1406 20.352 37.5353 20.128C37.9406 19.8933 38.2606 19.584 38.4953 19.2C38.7299 18.8053 38.8953 18.368 38.9913 17.888C39.0979 17.408 39.1513 16.912 39.1513 16.4V10.64H40.9593V16.4C40.9593 17.1787 40.8633 17.9093 40.6713 18.592C40.4899 19.2747 40.2019 19.8773 39.8073 20.4C39.4233 20.9227 38.9166 21.3333 38.2873 21.632C37.6686 21.9307 36.9219 22.08 36.0473 22.08ZM45.1345 13.968V22H43.3425V10.64H44.8145L51.2465 18.848V10.656H53.0545V22H51.4865L45.1345 13.968ZM55.6081 22V10.64H59.6401C60.8668 10.64 61.8855 10.896 62.6961 11.408C63.5175 11.9093 64.1361 12.592 64.5521 13.456C64.9681 14.3093 65.1761 15.2587 65.1761 16.304C65.1761 17.456 64.9468 18.4587 64.4881 19.312C64.0295 20.1653 63.3841 20.8267 62.5521 21.296C61.7308 21.7653 60.7601 22 59.6401 22H55.6081ZM63.3521 16.304C63.3521 15.504 63.2028 14.8 62.9041 14.192C62.6161 13.584 62.1948 13.104 61.6401 12.752C61.0961 12.4 60.4295 12.224 59.6401 12.224H57.4001V20.416H59.6401C60.4401 20.416 61.1121 20.2347 61.6561 19.872C62.2108 19.5093 62.6321 19.0187 62.9201 18.4C63.2081 17.7813 63.3521 17.0827 63.3521 16.304Z" fill="#DDE4EE"/>
<path d="M82.7133 11.2867C83.9631 12.5368 84.6652 14.2322 84.6652 16C84.6652 17.7677 83.9631 19.4631 82.7133 20.7133M80.36 13.64C80.9849 14.2651 81.3359 15.1128 81.3359 15.9967C81.3359 16.8805 80.9849 17.7282 80.36 18.3533M77.3333 11.3333L74 14H71.3333V18H74L77.3333 20.6667V11.3333Z" stroke="#DDE4EE" stroke-width="1.33" stroke-linecap="round" stroke-linejoin="round"/>
<rect x="0.5" y="0.5" width="93" height="31" rx="3.5" stroke="url(#paint0_linear)"/>
<defs>
<linearGradient id="paint0_linear" x1="47" y1="0" x2="47" y2="32" gradientUnits="userSpaceOnUse">
<stop stop-color="#745FF5"/>
<stop offset="1" stop-color="#583FF1"/>
</linearGradient>
</defs>
</svg>
