<svg width="66" height="32" viewBox="0 0 66 32" fill="none" xmlns="http://www.w3.org/2000/svg">
<rect x="0.5" y="0.5" width="65" height="31" rx="3.5" fill="#21262B"/>
<path d="M19.2226 22V13.904L15.8786 20.048H14.8226L11.4626 13.904V22H9.67063V10.64H11.5906L15.3506 17.584L19.1106 10.64H21.0306V22H19.2226ZM23.5925 22V10.64H25.3845V22H23.5925ZM27.2319 16.24C27.2319 15.5467 27.3545 14.864 27.5999 14.192C27.8452 13.52 28.2025 12.912 28.6719 12.368C29.1519 11.824 29.7279 11.392 30.3999 11.072C31.0825 10.7413 31.8612 10.576 32.7359 10.576C33.7599 10.576 34.6452 10.8053 35.3919 11.264C36.1385 11.7227 36.6932 12.32 37.0559 13.056L35.6479 14C35.4345 13.5413 35.1625 13.184 34.8319 12.928C34.5119 12.6613 34.1599 12.4747 33.7759 12.368C33.4025 12.2507 33.0345 12.192 32.6719 12.192C32.0745 12.192 31.5519 12.3147 31.1039 12.56C30.6559 12.7947 30.2772 13.1093 29.9679 13.504C29.6692 13.8987 29.4399 14.3413 29.2799 14.832C29.1305 15.3227 29.0559 15.8133 29.0559 16.304C29.0559 17.04 29.2105 17.728 29.5199 18.368C29.8399 18.9973 30.2719 19.5093 30.8159 19.904C31.3705 20.288 32.0052 20.48 32.7199 20.48C33.0825 20.48 33.4612 20.416 33.8559 20.288C34.2505 20.16 34.6132 19.9627 34.9439 19.696C35.2745 19.4187 35.5412 19.056 35.7439 18.608L37.2319 19.456C36.9972 20.0213 36.6292 20.5013 36.1279 20.896C35.6372 21.2907 35.0825 21.5893 34.4639 21.792C33.8559 21.9947 33.2532 22.096 32.6559 22.096C31.8559 22.096 31.1252 21.9307 30.4639 21.6C29.8025 21.2587 29.2319 20.8107 28.7519 20.256C28.2719 19.6907 27.8985 19.0613 27.6319 18.368C27.3652 17.664 27.2319 16.9547 27.2319 16.24Z" fill="#DDE4EE"/>
<path d="M54.6667 14.6667V16C54.6667 17.2377 54.175 18.4247 53.2998 19.2998C52.4247 20.175 51.2377 20.6667 50 20.6667M50 20.6667C48.7623 20.6667 47.5753 20.175 46.7002 19.2998C45.825 18.4247 45.3333 17.2377 45.3333 16V14.6667M50 20.6667V23.3333M47.3333 23.3333H52.6667M50 8.66666C49.4696 8.66666 48.9609 8.87737 48.5858 9.25244C48.2107 9.62752 48 10.1362 48 10.6667V16C48 16.5304 48.2107 17.0391 48.5858 17.4142C48.9609 17.7893 49.4696 18 50 18C50.5304 18 51.0392 17.7893 51.4142 17.4142C51.7893 17.0391 52 16.5304 52 16V10.6667C52 10.1362 51.7893 9.62752 51.4142 9.25244C51.0392 8.87737 50.5304 8.66666 50 8.66666Z" stroke="#DDE4EE" stroke-width="1.33" stroke-linecap="round" stroke-linejoin="round"/>
<rect x="0.5" y="0.5" width="65" height="31" rx="3.5" stroke="url(#paint0_linear)"/>
<defs>
<linearGradient id="paint0_linear" x1="33" y1="0" x2="33" y2="32" gradientUnits="userSpaceOnUse">
<stop stop-color="#745FF5"/>
<stop offset="1" stop-color="#583FF1"/>
</linearGradient>
</defs>
</svg>
