<svg width="57" height="32" viewBox="0 0 57 32" fill="none" xmlns="http://www.w3.org/2000/svg">
<rect x="1" y="0.5" width="55" height="31" rx="3.5" fill="#21262B"/>
<path d="M18.3113 12.224H14.5353V22H12.7273V12.224H8.93531V10.64H18.3113V12.224ZM27.6267 20.416V22H19.8347V10.64H27.4827V12.224H21.6267V15.456H26.6987V16.944H21.6267V20.416H27.6267ZM30.1953 10.64L33.3313 15.104L36.4673 10.64H38.4513L34.3553 16.4L38.3233 22H36.3393L33.3313 17.696L30.3233 22H28.3233L32.2913 16.4L28.1953 10.64H30.1953ZM48.0613 12.224H44.2853V22H42.4773V12.224H38.6853V10.64H48.0613V12.224Z" fill="#DDE4EE"/>
<rect x="1" y="0.5" width="55" height="31" rx="3.5" stroke="#CBD5E1"/>
</svg>
