<svg width="28" height="29" viewBox="0 0 28 29" fill="none" xmlns="http://www.w3.org/2000/svg">
<path d="M18.8111 7.49236C18.8111 6.25685 18.3203 5.07194 17.4467 4.1983C16.5731 3.32467 15.3881 2.83386 14.1526 2.83386C12.9171 2.83386 11.7322 3.32467 10.8586 4.1983C9.98494 5.07194 9.49414 6.25685 9.49414 7.49236V16.8093C9.49414 18.0449 9.98494 19.2298 10.8586 20.1034C11.7322 20.977 12.9171 21.4678 14.1526 21.4678C15.3881 21.4678 16.5731 20.977 17.4467 20.1034C18.3203 19.2298 18.8111 18.0449 18.8111 16.8093V7.49236Z" fill="white" stroke="white" stroke-width="1.5" stroke-linecap="round" stroke-linejoin="round"/>
<path d="M8.80396 15.2566H11.9096" stroke="#FC5D5B" stroke-width="1.5" stroke-linecap="round" stroke-linejoin="round"/>
<path d="M8.80396 12.1509H11.9096" stroke="#FC5D5B" stroke-width="1.5" stroke-linecap="round" stroke-linejoin="round"/>
<path d="M8.80396 9.04517H11.9096" stroke="#FC5D5B" stroke-width="1.5" stroke-linecap="round" stroke-linejoin="round"/>
<path d="M19.5017 15.2566H16.396" stroke="#FC5D5B" stroke-width="1.5" stroke-linecap="round" stroke-linejoin="round"/>
<path d="M19.5017 12.1509H16.396" stroke="#FC5D5B" stroke-width="1.5" stroke-linecap="round" stroke-linejoin="round"/>
<path d="M19.5017 9.04517H16.396" stroke="#FC5D5B" stroke-width="1.5" stroke-linecap="round" stroke-linejoin="round"/>
<path d="M6.38965 15.2566V16.8094C6.38965 18.8686 7.20766 20.8434 8.66372 22.2995C10.1198 23.7556 12.0946 24.5736 14.1538 24.5736C16.213 24.5736 18.1878 23.7556 19.6439 22.2995C21.1 20.8434 21.918 18.8686 21.918 16.8094V15.2566" stroke="white" stroke-width="1.5" stroke-linecap="round" stroke-linejoin="round"/>
<path d="M14.1536 24.5735V27.6791" stroke="white" stroke-width="1.5" stroke-linecap="round" stroke-linejoin="round"/>
<path d="M6.38965 27.6792H21.918" stroke="white" stroke-width="1.5" stroke-linecap="round" stroke-linejoin="round"/>
<path d="M2.93872 25.2636L25.3685 2.83386" stroke="#FC5D5B" stroke-width="5" stroke-linecap="round"/>
<path d="M2.24854 25.9538L24.6783 3.52405" stroke="white" stroke-width="2" stroke-linecap="round"/>
</svg>
