<svg version="1.0" xmlns="http://www.w3.org/2000/svg"
     width="100%" height="100%" viewBox="0 0 1400.000000 309.000000"
     preserveAspectRatio="xMidYMid meet">

    <g transform="translate(0.000000,309.000000) scale(0.100000,-0.100000)"
       fill="#000000" stroke="none">
        <path d="M1360 3070 c0 -5 -17 -12 -37 -15 -84 -13 -159 -27 -183 -35 -14 -4
-59 -18 -100 -31 -100 -31 -284 -125 -384 -197 -44 -31 -128 -104 -186 -162
-232 -232 -386 -536 -430 -850 -5 -35 -13 -66 -19 -68 -14 -5 -15 -322 -1
-322 5 0 12 -17 15 -37 22 -142 28 -167 75 -308 186 -564 703 -965 1303 -1011
48 -3 87 -10 87 -15 0 -5 9 -9 20 -9 11 0 20 4 20 9 0 5 35 12 78 15 345 29
632 155 910 401 149 132 325 412 396 627 22 70 31 102 56 212 17 76 24 338 11
446 -20 169 -42 255 -102 407 -194 487 -652 851 -1159 923 -35 5 -66 13 -68
19 -5 14 -302 15 -302 1z m164 -343 c39 -83 115 -167 214 -237 34 -24 65 -53
68 -63 10 -30 -13 -61 -70 -96 -65 -39 -96 -67 -96 -86 0 -8 16 -32 35 -54 19
-21 35 -46 35 -55 0 -9 -16 -26 -35 -38 -33 -19 -35 -22 -20 -38 23 -25 19
-43 -20 -80 -43 -42 -45 -76 -10 -152 66 -140 3 -238 -195 -301 -141 -45 -207
-102 -226 -195 -4 -19 5 -59 25 -118 17 -48 31 -92 31 -96 0 -4 -21 -28 -46
-53 -44 -45 -45 -47 -30 -70 21 -32 21 -32 -13 -49 -44 -23 -45 -43 -6 -89 19
-22 35 -46 35 -52 0 -23 -34 -57 -83 -81 -69 -35 -87 -52 -87 -83 0 -36 5 -41
90 -98 122 -82 229 -197 206 -220 -8 -8 -121 15 -206 44 -74 24 -230 102 -298
148 -59 40 -185 156 -238 220 -132 157 -223 344 -269 555 -25 116 -30 335 -11
455 19 115 72 281 118 369 83 158 214 319 343 423 158 126 396 225 610 252
120 15 110 19 149 -62z"/>
        <path d="M5260 2205 l0 -875 145 0 145 0 0 875 0 875 -145 0 -145 0 0 -875z"/>
        <path d="M8042 2208 l3 -873 137 -3 138 -3 2 473 3 473 250 0 c174 0 263 -4
292 -13 69 -21 125 -70 150 -132 22 -53 22 -66 23 -428 l0 -373 138 3 137 3 0
410 c-1 388 -2 413 -21 467 -47 130 -134 230 -243 280 -105 48 -181 59 -471
66 l-255 7 -3 258 -2 257 -140 0 -140 0 2 -872z"/>
        <path d="M7307 2834 c-4 -4 -7 -59 -7 -123 0 -64 -4 -121 -8 -128 -4 -7 -37
-13 -77 -15 l-70 -3 0 -130 0 -130 72 -3 c66 -3 73 -5 78 -25 3 -12 6 -166 7
-342 3 -286 5 -326 22 -378 39 -115 112 -168 257 -187 124 -15 284 -13 298 4
8 9 11 52 9 127 l-3 114 -120 6 c-73 3 -128 11 -141 19 -47 29 -48 40 -52 333
-2 152 -1 289 2 302 l6 25 155 0 155 0 0 129 c0 108 -3 130 -16 135 -9 3 -78
6 -155 6 -163 0 -148 -15 -152 155 l-2 110 -126 3 c-69 1 -128 -1 -132 -4z"/>
        <path d="M3820 2406 l0 -135 388 -3 c356 -3 390 -5 416 -21 35 -23 56 -73 56
-131 0 -39 -3 -46 -22 -51 -13 -2 -165 -6 -338 -8 -309 -2 -316 -3 -374 -27
-67 -29 -133 -88 -160 -144 -44 -94 -43 -267 2 -367 24 -53 91 -123 136 -143
94 -41 89 -41 496 -41 l395 0 41 24 c24 13 52 41 65 65 l24 41 0 405 0 405
-33 67 c-34 70 -86 123 -151 154 -80 38 -143 43 -548 44 l-393 0 0 -134z m860
-679 c0 -67 -4 -107 -12 -115 -19 -19 -537 -17 -583 2 -79 33 -86 168 -11 205
13 6 139 10 314 10 l292 1 0 -103z"/>
        <path d="M6100 2526 c-104 -24 -200 -92 -233 -168 -42 -95 -42 -94 -42 -413 0
-304 0 -311 25 -378 44 -123 150 -206 292 -228 35 -5 234 -8 443 -7 l380 3 0
130 0 130 -395 5 c-362 5 -398 7 -424 23 -35 24 -58 77 -54 130 l3 42 325 5
c312 5 328 6 393 30 154 55 227 195 205 392 -20 172 -117 274 -292 307 -81 15
-554 13 -626 -3z m572 -266 c49 -14 78 -55 78 -112 0 -24 -7 -54 -16 -66 -34
-49 -53 -52 -359 -52 l-285 0 0 54 c0 107 27 161 90 176 51 12 449 12 492 0z"/>
        <path d="M9890 2526 c-152 -35 -233 -106 -279 -246 -19 -58 -21 -86 -21 -341
0 -292 6 -342 48 -426 24 -47 96 -115 143 -135 19 -9 48 -21 64 -29 23 -11
123 -14 458 -17 l427 -4 0 136 0 135 -397 3 c-321 2 -402 6 -419 17 -35 24
-56 72 -52 127 l3 49 325 6 c343 7 379 12 455 59 143 88 189 315 104 507 -37
83 -110 135 -224 159 -80 18 -557 17 -635 0z m578 -276 c47 -31 65 -107 37
-160 -30 -57 -46 -60 -360 -60 l-285 0 0 74 c0 87 24 133 80 153 54 19 497 13
528 -7z"/>
        <path d="M11090 2406 l0 -135 388 -3 c421 -3 417 -3 452 -61 25 -41 28 -132 4
-141 -9 -3 -145 -6 -303 -6 -159 0 -313 -4 -342 -10 -123 -23 -220 -104 -251
-209 -21 -74 -16 -235 11 -303 25 -64 92 -139 144 -162 95 -41 90 -41 493 -41
390 0 390 0 436 23 30 16 53 38 69 65 l24 42 0 405 0 405 -33 67 c-34 70 -86
123 -151 154 -80 38 -143 43 -548 44 l-393 0 0 -134z m860 -686 c0 -106 -1
-110 -23 -115 -13 -4 -147 -5 -299 -3 -276 3 -277 3 -302 27 -50 47 -40 161
17 189 14 7 130 11 315 11 l292 1 0 -110z"/>
        <path d="M13517 2233 c-4 -3 -7 -37 -7 -75 l0 -68 55 0 55 0 0 69 c0 54 -4 70
-16 75 -21 8 -79 8 -87 -1z"/>
        <path d="M12794 1997 c-3 -8 -4 -34 -2 -58 l3 -44 196 -3 c188 -2 197 -3 216
-25 22 -24 36 -76 25 -94 -5 -7 -70 -12 -187 -15 -199 -4 -224 -10 -266 -69
-18 -26 -22 -45 -22 -105 0 -67 2 -78 30 -112 48 -59 96 -71 301 -72 188 0
227 8 250 51 10 19 12 75 10 230 -3 203 -3 206 -30 246 -46 70 -74 78 -311 81
-174 3 -208 1 -213 -11z m442 -364 c4 -20 3 -52 -2 -72 l-9 -36 -140 -3 c-77
-1 -150 0 -162 3 -70 17 -72 113 -3 138 8 3 81 6 162 6 l147 1 7 -37z"/>
        <path d="M13515 1987 c-3 -7 -4 -149 -3 -317 l3 -305 29 -3 c15 -2 39 -1 52 2
l24 6 0 309 c0 342 4 321 -66 321 -19 0 -37 -6 -39 -13z"/>
        <path d="M12452 1478 l3 -73 70 0 70 0 3 73 3 72 -76 0 -76 0 3 -72z"/>
        <path d="M6847 843 c-4 -3 -7 -57 -7 -120 0 -94 -3 -113 -15 -113 -8 0 -15 4
-15 9 0 5 -20 18 -45 30 -140 66 -293 -28 -303 -184 -4 -55 0 -70 24 -116 41
-75 97 -109 181 -109 62 0 132 24 148 50 12 20 25 10 25 -20 0 -25 4 -30 25
-30 l25 0 0 305 c0 289 -1 305 -18 305 -10 0 -22 -3 -25 -7z m-100 -238 c56
-23 86 -75 87 -150 1 -103 -58 -167 -153 -167 -94 0 -152 56 -159 153 -4 49 0
65 21 101 42 73 121 97 204 63z"/>
        <path d="M9187 844 c-4 -4 -7 -142 -7 -306 l0 -299 28 3 27 3 5 145 c5 152 13
178 63 210 33 20 111 24 148 6 58 -27 64 -44 67 -213 l4 -153 30 0 31 0 -5
158 c-5 145 -7 161 -29 195 -58 89 -179 104 -281 35 l-27 -19 -3 118 c-3 110
-4 118 -23 121 -12 2 -24 0 -28 -4z"/>
        <path d="M10607 839 c-31 -18 -14 -69 23 -69 18 0 43 36 35 50 -12 19 -40 28
-58 19z"/>
        <path d="M13187 844 c-4 -4 -7 -58 -7 -121 0 -94 -3 -113 -15 -113 -8 0 -15 4
-15 9 0 5 -20 18 -45 30 -140 66 -293 -28 -303 -184 -4 -55 0 -70 24 -116 41
-75 98 -109 180 -109 64 0 121 18 144 44 19 24 30 19 30 -15 0 -27 3 -30 28
-27 l27 3 0 300 c0 294 0 300 -20 303 -12 2 -24 0 -28 -4z m-80 -244 c42 -27
67 -78 67 -143 1 -105 -57 -169 -155 -169 -93 0 -159 68 -159 166 0 77 39 134
110 160 23 9 115 -1 137 -14z"/>
        <path d="M13423 843 c-19 -7 -16 -62 3 -70 39 -15 71 40 38 64 -19 14 -22 14
-41 6z"/>
        <path d="M7415 811 c-50 -8 -102 -37 -128 -72 -26 -36 -27 -114 -2 -152 22
-34 89 -69 165 -86 79 -18 142 -51 160 -83 13 -24 13 -30 -2 -62 -31 -63 -117
-88 -218 -62 -34 9 -75 25 -91 36 l-28 21 -11 -21 c-16 -29 -1 -44 68 -70 112
-42 274 -20 315 43 70 108 24 193 -128 236 -154 42 -195 68 -195 121 0 43 45
87 103 102 41 11 57 10 110 -5 113 -32 107 -32 107 -4 0 21 -8 28 -42 41 -53
18 -130 26 -183 17z"/>
        <path d="M3803 795 c-9 -26 4 -30 105 -35 l97 -5 3 -257 2 -258 30 0 30 0 0
260 0 260 78 0 c96 0 122 7 122 31 0 18 -11 19 -230 19 -199 0 -231 -2 -237
-15z"/>
        <path d="M11560 525 l0 -285 25 0 25 0 0 209 c0 116 4 212 9 215 8 5 30 -22
55 -69 56 -104 171 -285 181 -285 11 0 109 157 191 307 16 29 34 51 39 50 6
-2 11 -85 13 -215 l2 -212 25 0 25 0 0 285 0 285 -24 0 c-20 0 -34 -19 -88
-112 -151 -262 -173 -298 -183 -298 -5 0 -26 28 -46 63 -173 302 -202 347
-226 347 l-23 0 0 -285z"/>
        <path d="M5695 758 c-2 -7 -6 -29 -7 -48 -3 -33 -5 -35 -41 -38 -33 -3 -38 -6
-35 -25 2 -17 12 -23 38 -27 l35 -5 3 -157 3 -157 30 -30 c27 -27 38 -31 85
-31 65 0 97 16 83 41 -7 14 -14 16 -42 7 -47 -14 -88 6 -99 50 -5 18 -7 87 -6
155 l3 122 60 5 c52 4 60 8 63 27 3 20 -1 22 -60 25 l-63 3 -3 40 c-3 36 -15
54 -35 55 -4 0 -10 -6 -12 -12z"/>
        <path d="M8845 758 c-2 -7 -6 -29 -7 -48 -3 -32 -6 -35 -38 -40 -27 -4 -35
-10 -35 -25 0 -15 8 -21 35 -25 l35 -5 3 -157 3 -157 30 -30 c27 -27 38 -31
85 -31 65 0 97 16 83 41 -7 14 -14 16 -42 7 -47 -14 -88 6 -99 50 -5 18 -7 87
-6 155 l3 122 60 5 c52 4 60 8 63 27 3 20 -1 22 -60 25 l-63 3 -3 40 c-3 36
-15 54 -35 55 -4 0 -10 -6 -12 -12z"/>
        <path d="M10280 751 c-5 -11 -10 -33 -10 -50 0 -29 -3 -31 -36 -31 -31 0 -35
-3 -32 -22 2 -18 11 -24 36 -26 l32 -3 0 -113 c0 -158 7 -201 40 -236 25 -26
35 -30 84 -30 66 0 99 16 86 41 -8 14 -15 15 -49 6 -32 -9 -44 -8 -65 6 -32
22 -38 53 -34 202 l3 120 60 5 c52 4 60 8 60 25 0 17 -8 21 -60 25 l-60 5 -3
40 c-5 54 -32 73 -52 36z"/>
        <path d="M4334 657 c-2 -7 -3 -102 -2 -212 l3 -200 28 -3 27 -3 0 117 c0 64 5
135 12 157 14 48 61 97 93 97 39 0 55 11 55 36 0 19 -5 24 -25 24 -32 0 -104
-36 -112 -55 -8 -23 -23 -7 -23 26 0 24 -4 29 -25 29 -14 0 -28 -6 -31 -13z"/>
        <path d="M4690 518 c0 -173 12 -215 75 -255 63 -41 193 -28 236 23 13 16 14
15 19 -12 4 -23 11 -30 33 -32 l27 -3 0 216 0 216 -27 -3 -28 -3 -5 -146 c-6
-160 -14 -185 -71 -215 -40 -20 -113 -20 -144 0 -53 35 -60 59 -64 218 l-3
148 -24 0 -24 0 0 -152z"/>
        <path d="M5294 655 c-45 -20 -74 -61 -74 -105 0 -53 30 -86 95 -105 30 -8 80
-22 111 -31 43 -12 57 -21 65 -42 8 -21 6 -31 -9 -51 -28 -37 -93 -47 -168
-26 -82 23 -98 23 -102 2 -6 -30 70 -57 160 -57 120 0 178 38 178 116 0 68
-32 90 -175 125 -79 19 -97 34 -93 77 2 30 9 40 33 51 38 19 110 18 156 -2 40
-16 63 -9 57 18 -7 40 -166 59 -234 30z"/>
        <path d="M6075 656 c-150 -67 -169 -290 -31 -383 56 -38 173 -45 233 -15 55
28 68 46 47 63 -14 11 -22 10 -56 -10 -48 -28 -129 -31 -175 -7 -57 29 -102
108 -72 127 8 5 87 9 177 9 l162 0 0 46 c0 58 -43 123 -104 159 -49 29 -130
34 -181 11z m187 -73 c25 -21 51 -80 43 -93 -4 -6 -70 -10 -151 -10 -155 0
-155 0 -135 52 14 36 55 72 98 84 44 13 111 -2 145 -33z"/>
        <path d="M7730 660 c0 -6 12 -37 26 -68 169 -368 170 -373 109 -437 -36 -39
-55 -42 -108 -20 -34 14 -36 14 -42 -6 -10 -31 21 -48 87 -49 87 0 110 25 193
212 68 153 124 276 150 333 15 32 7 49 -20 43 -11 -2 -43 -61 -95 -176 -42
-95 -81 -173 -86 -173 -5 0 -43 78 -85 173 -69 157 -79 173 -103 176 -14 2
-26 -2 -26 -8z"/>
        <path d="M8277 664 c-4 -4 -7 -101 -7 -216 l0 -208 30 0 30 0 0 125 c0 143 14
192 64 228 24 17 45 22 95 22 59 0 65 -2 91 -33 33 -39 40 -82 40 -233 l0
-109 26 0 26 0 -4 164 c-3 160 -4 164 -31 200 -38 48 -75 66 -142 66 -54 0
-125 -25 -140 -50 -11 -18 -24 -10 -27 18 -3 26 -34 43 -51 26z"/>
        <path d="M9840 657 c-45 -21 -67 -41 -99 -91 -68 -108 -27 -247 89 -306 75
-38 214 -21 258 33 10 11 9 17 -3 27 -13 11 -23 9 -56 -9 -47 -27 -132 -30
-177 -7 -50 26 -98 103 -77 124 3 4 84 9 178 12 l172 5 -4 44 c-4 59 -41 115
-98 151 -38 24 -57 30 -102 29 -31 0 -67 -6 -81 -12z m189 -81 c16 -17 31 -44
33 -61 l3 -30 -147 -3 c-160 -3 -159 -3 -139 50 36 95 177 119 250 44z"/>
        <path d="M10600 455 l0 -215 25 0 25 0 0 215 0 215 -25 0 -25 0 0 -215z"/>
        <path d="M10916 650 c-54 -27 -81 -55 -105 -106 -48 -100 -12 -212 87 -275 39
-25 56 -29 115 -29 71 0 96 8 135 43 49 45 12 73 -43 32 -45 -35 -127 -38
-178 -6 -71 44 -97 145 -57 225 31 62 63 81 140 81 52 0 71 -5 98 -23 18 -13
39 -21 47 -18 28 10 15 36 -32 66 -39 25 -57 30 -107 30 -40 -1 -75 -8 -100
-20z"/>
        <path d="M12415 656 c-150 -67 -169 -290 -31 -383 56 -38 173 -45 233 -15 54
28 68 46 48 62 -13 11 -23 9 -56 -9 -47 -27 -132 -30 -177 -7 -56 29 -100 108
-71 127 8 5 87 9 177 9 122 0 162 3 163 13 6 77 -34 150 -105 192 -49 29 -130
34 -181 11z m187 -73 c25 -21 51 -80 43 -93 -4 -6 -70 -10 -151 -10 -155 0
-155 0 -135 52 14 36 55 72 98 84 44 13 111 -2 145 -33z"/>
        <path d="M13417 664 c-4 -4 -7 -101 -7 -216 l0 -208 30 0 30 0 -2 213 c-3 205
-4 212 -23 215 -12 2 -24 0 -28 -4z"/>
        <path d="M13683 645 c-56 -25 -62 -35 -38 -55 12 -10 20 -9 40 4 14 9 51 19
83 22 80 9 127 -13 143 -66 19 -62 13 -66 -103 -72 -115 -6 -155 -20 -178 -63
-16 -31 -17 -84 0 -114 34 -64 172 -85 244 -36 20 14 39 25 41 25 3 0 5 -11 5
-25 0 -22 4 -25 35 -25 l35 0 0 150 c0 83 -4 150 -9 150 -4 0 -16 19 -25 43
-23 60 -72 87 -157 87 -47 0 -78 -7 -116 -25z m235 -243 c8 -86 -112 -152
-202 -111 -33 15 -52 62 -40 97 13 37 61 52 159 49 l80 -2 3 -33z"/>
    </g>
</svg>
