<svg width="48" height="48" viewBox="0 0 48 48" fill="none" xmlns="http://www.w3.org/2000/svg">
    <path d="M32.3333 35.6666C33.2538 35.6666 34 34.9204 34 34V33.4444C34 31.3816 33.9197 29.5263 32.3263 27.9447C31.3361 26.9618 30.4301 26.6727 29.162 26.2862C27.495 25.7782 25.7427 25.6666 24 25.6666C22.2573 25.6666 20.505 25.7782 18.838 26.2862C17.5699 26.6727 16.6639 26.9618 15.6737 27.9447C14.0803 29.5263 14 31.3816 14 33.4444V34" stroke="white" stroke-width="1.5" stroke-linecap="round" stroke-linejoin="round"/>
    <path d="M16.5 40.6667H9.00004C8.07957 40.6667 7.33337 39.9205 7.33337 39V31.5M7.33337 16.5V9.00004C7.33337 8.07957 8.07957 7.33337 9.00004 7.33337H16.5M31.5 7.33337H39C39.9205 7.33337 40.6667 8.07957 40.6667 9.00004V16.5M40.6667 31.5V39C40.6667 39.9205 39.9205 40.6667 39 40.6667H31.5" stroke="white" stroke-width="1.5" stroke-linecap="round" stroke-linejoin="round"/>
    <rect x="19" y="12.3334" width="10" height="10" rx="5" stroke="white" stroke-width="1.5"/>
</svg>
