<svg version="1.0" xmlns="http://www.w3.org/2000/svg"
 width="200px" height="60px" viewBox="0 0 1024.000000 206.000000"
 preserveAspectRatio="xMidYMid meet">

<g transform="translate(0.000000,206.000000) scale(0.100000,-0.100000)"
fill="#f0b90b" stroke="none">
<path d="M700 1745 l-315 -315 117 -117 117 -116 191 196 c106 108 197 197
203 197 7 0 100 -88 207 -195 l195 -195 115 115 115 115 -315 315 -315 315
-315 -315z"/>
<path d="M5917 2048 c-3 -7 -105 -247 -227 -533 -122 -286 -224 -528 -227
-537 -5 -16 5 -18 110 -18 82 0 118 4 124 13 4 6 28 62 53 122 l45 110 231 3
231 2 51 -122 50 -123 121 -3 c67 -1 121 1 121 6 0 5 -103 252 -229 548 l-229
539 -110 3 c-82 2 -111 -1 -115 -10z m187 -457 c36 -90 65 -166 62 -168 -2 -2
-66 -2 -143 -1 l-139 3 71 172 c38 95 73 169 76 165 3 -4 36 -81 73 -171z"/>
<path d="M8510 2037 c-174 -59 -313 -212 -355 -389 -47 -199 8 -404 144 -538
112 -111 234 -160 399 -160 165 0 279 41 380 135 l57 54 -74 75 -74 74 -51
-38 c-82 -62 -136 -82 -226 -82 -62 0 -89 5 -132 24 -102 47 -171 142 -186
258 -22 159 44 301 172 368 45 23 62 27 141 26 101 0 146 -15 228 -78 l47 -36
29 32 c16 18 50 58 75 88 l47 55 -38 32 c-50 42 -134 87 -202 107 -87 26 -298
22 -381 -7z"/>
<path d="M2410 1505 l0 -545 243 0 c267 1 396 10 472 35 128 42 197 136 198
267 0 118 -45 193 -146 244 l-48 25 49 44 c28 26 57 63 67 87 20 52 21 163 2
210 -21 49 -73 106 -121 130 -84 43 -127 48 -428 48 l-288 0 0 -545z m554 321
c86 -36 90 -152 7 -193 -28 -14 -67 -18 -183 -21 l-148 -4 0 116 0 116 145 0
c102 0 156 -4 179 -14z m62 -432 c68 -32 86 -123 36 -174 -41 -41 -88 -50
-264 -50 l-158 0 0 120 0 120 176 0 c142 0 183 -3 210 -16z"/>
<path d="M3630 1505 l0 -546 118 3 117 3 3 543 2 542 -120 0 -120 0 0 -545z"/>
<path d="M4230 1505 l0 -545 115 0 115 0 0 346 c0 288 2 345 13 335 8 -6 128
-161 268 -346 l254 -335 98 0 97 0 0 545 0 545 -115 0 -115 0 -2 -332 -3 -331
-250 329 -251 329 -112 3 -112 3 0 -546z"/>
<path d="M6870 1505 l0 -545 115 0 115 0 2 347 3 346 264 -346 264 -347 98 0
99 0 0 545 0 545 -115 0 -115 0 0 -330 c0 -181 -3 -330 -7 -329 -5 0 -120 148
-257 330 l-249 329 -108 0 -109 0 0 -545z"/>
<path d="M9422 1508 l3 -543 408 -3 407 -2 0 110 0 110 -290 0 -290 0 0 115 0
115 255 0 255 0 0 105 0 105 -255 0 -255 0 0 110 0 110 290 0 290 0 0 105 0
105 -410 0 -410 0 2 -542z"/>
<path d="M107 1152 c-59 -59 -107 -112 -107 -117 0 -13 212 -225 225 -225 6 0
60 50 120 110 l110 110 -115 115 c-63 63 -117 115 -120 115 -3 0 -54 -48 -113
-108z"/>
<path d="M897 1152 c-59 -59 -107 -112 -107 -117 0 -6 51 -61 113 -123 l112
-112 118 118 117 117 -113 113 c-62 61 -117 112 -122 112 -6 0 -59 -48 -118
-108z"/>
<path d="M1692 1147 l-112 -112 115 -115 115 -115 115 115 115 115 -112 112
c-62 62 -115 113 -118 113 -3 0 -56 -51 -118 -113z"/>
<path d="M1215 670 l-200 -200 -197 197 -198 198 -115 -115 -115 -115 313
-313 312 -312 315 315 315 315 -115 115 -115 115 -200 -200z"/>
<path d="M2553 756 c-67 -32 -109 -89 -118 -160 -16 -123 29 -177 190 -226
157 -49 188 -62 218 -91 30 -31 34 -57 13 -98 -20 -39 -55 -51 -147 -51 -85 0
-171 27 -226 69 l-26 21 -28 -47 c-17 -31 -24 -52 -18 -59 18 -22 137 -73 198
-85 66 -13 183 -8 243 11 84 25 138 102 138 195 0 123 -53 168 -266 225 -57
15 -115 35 -129 44 -57 37 -55 114 4 153 62 42 230 23 292 -33 18 -16 20 -14
52 44 10 17 16 36 13 41 -3 5 -32 21 -63 37 -52 26 -69 29 -173 32 -105 2
-120 0 -167 -22z"/>
<path d="M3180 400 l0 -381 58 3 57 3 5 269 5 268 112 -203 c110 -202 112
-204 145 -204 33 0 34 2 135 185 56 102 108 194 117 205 14 18 15 -5 16 -252
l0 -273 55 0 55 0 0 380 0 381 -66 -3 -66 -3 -45 -85 c-25 -47 -63 -119 -86
-160 -22 -41 -57 -106 -77 -143 -28 -51 -39 -65 -47 -55 -5 7 -36 63 -68 123
-191 362 -163 325 -241 325 l-64 0 0 -380z"/>
<path d="M4390 753 c-6 -16 -17 -44 -25 -63 -7 -19 -34 -87 -59 -150 -24 -63
-79 -201 -120 -307 -42 -106 -76 -197 -76 -202 0 -7 24 -11 58 -11 l57 0 16
43 c9 23 27 70 39 105 l23 62 154 -2 154 -3 38 -100 38 -100 47 -3 c71 -5 79
0 62 40 -15 34 -83 208 -130 333 -15 39 -33 86 -41 105 -7 19 -35 90 -62 157
l-48 123 -58 0 c-54 0 -58 -2 -67 -27z m93 -163 c28 -82 84 -235 92 -252 7
-17 -2 -18 -115 -18 -141 0 -132 -19 -70 150 21 58 44 122 51 142 15 43 20 41
42 -22z"/>
<path d="M4972 403 l3 -378 58 -3 57 -3 0 136 0 136 92 -3 91 -3 81 -132 81
-132 63 -1 c34 0 62 2 62 5 0 12 -32 67 -100 172 l-70 108 22 15 c91 62 122
115 122 215 0 80 -21 129 -76 182 -59 57 -87 63 -298 63 l-190 0 2 -377z m380
260 c37 -22 68 -80 68 -128 0 -48 -31 -106 -68 -127 -24 -14 -54 -18 -146 -18
l-116 0 0 145 0 145 116 0 c92 0 122 -4 146 -17z"/>
<path d="M5670 730 l0 -50 125 0 125 0 2 -327 3 -328 60 0 60 0 3 328 2 327
125 0 125 0 0 50 0 50 -315 0 -315 0 0 -50z"/>
<path d="M6922 749 c-59 -29 -131 -100 -161 -157 -84 -160 -36 -378 108 -495
117 -95 291 -103 415 -18 45 32 96 89 96 109 0 5 -20 22 -45 35 l-44 25 -20
-32 c-33 -52 -106 -86 -185 -86 -81 0 -129 22 -180 82 -92 107 -86 306 12 403
45 45 95 65 162 65 78 0 126 -20 172 -72 l37 -42 40 27 c23 15 41 32 41 37 0
22 -88 104 -135 126 -42 20 -66 24 -151 24 -93 0 -106 -2 -162 -31z"/>
<path d="M7565 767 c-3 -6 -4 -176 -3 -377 l3 -365 58 -3 57 -3 0 171 0 170
195 0 195 0 2 -167 3 -168 58 -3 57 -3 0 381 0 380 -60 0 -60 0 0 -155 0 -155
-195 0 -195 0 0 155 0 155 -55 0 c-35 0 -57 -5 -60 -13z"/>
<path d="M8642 763 c-6 -10 -35 -83 -65 -163 -31 -80 -90 -233 -132 -340 -102
-260 -100 -240 -31 -240 64 0 57 -8 112 138 l27 72 155 -2 154 -3 36 -100 37
-100 49 -3 c74 -5 79 0 57 50 -11 24 -26 61 -35 83 -46 121 -164 424 -200 515
l-41 105 -57 3 c-46 2 -59 0 -66 -15z m103 -211 c13 -37 35 -98 49 -137 14
-38 26 -76 26 -82 0 -10 -29 -13 -115 -13 -85 0 -115 3 -115 13 0 6 13 46 29
87 17 41 42 110 57 153 31 88 31 88 69 -21z"/>
<path d="M9222 403 l3 -378 58 -3 57 -3 0 381 0 380 -60 0 -60 0 2 -377z"/>
<path d="M9580 400 l0 -381 58 3 57 3 5 266 5 266 125 -159 c69 -87 144 -184
168 -216 24 -31 60 -76 80 -100 20 -24 40 -48 43 -54 3 -5 28 -8 55 -6 l49 3
3 378 2 377 -60 0 -60 0 -2 -274 -3 -273 -105 135 c-58 75 -134 172 -170 217
-36 45 -74 94 -85 109 -60 82 -65 86 -116 86 l-49 0 0 -380z"/>
</g>
</svg>
