<svg width="35" height="25" viewBox="0 0 35 25" fill="none" xmlns="http://www.w3.org/2000/svg">
<path d="M30.7415 3.125C28.4615 1.5625 26.0242 0.46875 23.351 0.078125C22.9579 0 22.5648 -0.078125 22.093 0.234375C24.2158 0.9375 26.26 1.5625 27.9897 2.89062C20.2847 0.46875 12.8155 0.234375 5.5036 3.90625C7.54779 2.26562 9.82786 1.01562 12.3438 0.234375C12.1865 0.078125 12.1079 0 11.9507 0C9.19887 0.234375 6.76156 1.40625 4.4815 2.89062C4.32426 3.04688 4.16701 3.28125 4.08839 3.4375C1.57246 8.67188 0.157246 14.0625 0 19.8438C0 20.4688 0.235869 20.9375 0.628983 21.4062C2.12282 23.125 4.08839 24.1406 6.36845 24.6875C7.86228 25.0781 9.19887 25.0781 10.221 23.5938C10.6927 22.9688 10.85 22.7344 9.9851 22.3438C8.49127 21.875 7.31192 20.9375 6.2112 19.5312C13.8376 23.6719 21.3068 23.4375 28.776 19.6875C27.9111 20.9375 26.8104 21.7188 25.0021 22.4219C24.6876 22.5 24.2945 22.5 24.2945 22.9688C24.2945 23.3594 25.8669 25 26.3387 25C29.2477 24.8438 31.8422 23.9062 33.8864 21.875C34.3582 21.4062 34.9872 20.9375 34.9872 20.1562C34.9872 16.3281 35.1444 12.5781 34.3582 8.82812C33.8078 6.48438 32.7071 4.53125 30.7415 3.125ZM11.7148 17.8125C9.90648 17.8125 8.56989 16.4844 8.56989 14.5312C8.56989 12.6562 9.90648 11.1719 11.6362 11.1719C13.3659 11.1719 14.7811 12.5781 14.8597 14.4531C14.8597 16.4062 13.6018 17.7344 11.7148 17.8125ZM22.6434 17.8125C20.8351 17.8125 19.4198 16.25 19.4985 14.375C19.5771 12.5 20.9923 11.0938 22.8006 11.1719C24.5303 11.25 25.9455 12.7344 25.8669 14.6094C25.7883 16.4062 24.3731 17.8125 22.6434 17.8125Z" fill="#03D5E8"/>
</svg>
