<svg width="80" height="80" viewBox="0 0 80 80" fill="none" xmlns="http://www.w3.org/2000/svg">
    <path d="M33.3332 13H59.9998C61.7679 13 63.4636 13.7024 64.7139 14.9526C65.9641 16.2029 66.6665 17.8986 66.6665 19.6667V46.3333C66.6665 48.1014 65.9641 49.7971 64.7139 51.0474C63.4636 52.2976 61.7679 53 59.9998 53H33.3332C31.5651 53 29.8694 52.2976 28.6191 51.0474C27.3689 49.7971 26.6665 48.1014 26.6665 46.3333V19.6667C26.6665 17.8986 27.3689 16.2029 28.6191 14.9526C29.8694 13.7024 31.5651 13 33.3332 13Z"
          stroke="#121427" stroke-width="1.5" stroke-linecap="round" stroke-linejoin="round"/>
    <path d="M53 53.1666V58.6666C53 63.0849 49.4183 66.6666 45 66.6666H21C16.5817 66.6666 13 63.0849 13 58.6666V33.6666C13 29.2483 16.5817 25.6666 21 25.6666H26.5"
          stroke="#121427" stroke-width="1.5" stroke-linecap="round" stroke-linejoin="round" stroke-dasharray="5 10"/>
</svg>
