<svg width="25" height="24" viewBox="0 0 25 24" fill="none" xmlns="http://www.w3.org/2000/svg">
<path d="M3.5 19.0006V10.0706C3.49995 9.74141 3.58116 9.4173 3.73641 9.12703C3.89166 8.83676 4.11617 8.58929 4.39 8.4066L11.39 3.7406C11.7187 3.52132 12.1049 3.4043 12.5 3.4043C12.8951 3.4043 13.2813 3.52132 13.61 3.7406L20.61 8.4066C20.8838 8.58929 21.1083 8.83676 21.2636 9.12703C21.4188 9.4173 21.5 9.74141 21.5 10.0706V19.0006M3.5 19.0006C3.5 19.531 3.71071 20.0397 4.08579 20.4148C4.46086 20.7899 4.96957 21.0006 5.5 21.0006H19.5C20.0304 21.0006 20.5391 20.7899 20.9142 20.4148C21.2893 20.0397 21.5 19.531 21.5 19.0006M3.5 19.0006L10.25 14.5006M21.5 19.0006L14.75 14.5006M10.25 14.5006L3.5 10.0006M10.25 14.5006L11.39 15.2606C11.7187 15.4799 12.1049 15.5969 12.5 15.5969C12.8951 15.5969 13.2813 15.4799 13.61 15.2606L14.75 14.5006M14.75 14.5006L21.5 10.0006" stroke="white" stroke-width="2" stroke-linecap="round" stroke-linejoin="round"/>
</svg>
