<svg width="32" height="32" viewBox="0 0 32 32" fill="none" xmlns="http://www.w3.org/2000/svg">
<path d="M2 9V4C2 2.89543 2.89543 2 4 2H9M2 23V28C2 29.1046 2.89543 30 4 30H9M30 9V4C30 2.89543 29.1046 2 28 2H23M30 23V28C30 29.1046 29.1046 30 28 30H23" stroke="white" stroke-linecap="round" stroke-linejoin="round"/>
<path d="M10.0234 14.9749C12.0722 12.6701 13.0966 10.6213 12.8405 8.31641C12.8405 8.31641 13.8649 11.1335 17.9625 11.1335C22.06 11.1335 22.3161 13.4384 22.3161 14.9749" stroke="white" stroke-linecap="round" stroke-linejoin="round"/>
<path d="M7.20522 12.8148C7.20522 8.77493 10.4802 5.5 14.52 5.5H17.3051C21.3449 5.5 24.6199 8.77493 24.6199 12.8148V12.8148C24.6199 13.4013 24.6269 13.9875 24.6583 14.5732C24.7127 15.5882 24.7578 17.225 24.5503 18.0551C24.4432 18.4839 23.8094 18.3966 23.6734 18.8171C23.1547 20.4208 22.4278 21.9587 21.5047 23.3895L21.0619 24.0759C20.6328 24.7409 20.0281 25.2742 19.3146 25.6167V25.6167C17.1641 26.6492 14.661 26.6492 12.5104 25.6167V25.6167C11.797 25.2742 11.1923 24.7409 10.7632 24.0759L10.3204 23.3895C9.3973 21.9587 8.67035 20.4208 8.15169 18.8171C8.01572 18.3966 7.38187 18.4839 7.27475 18.0551C7.06733 17.225 7.11235 15.5882 7.16676 14.5732C7.19816 13.9875 7.20522 13.4013 7.20522 12.8148V12.8148Z" stroke="white" stroke-linecap="round" stroke-linejoin="round"/>
<rect x="11.8145" y="15.7441" width="2.04878" height="2.04878" rx="1.02439" fill="white"/>
<rect x="18.4727" y="15.7441" width="2.04878" height="2.04878" rx="1.02439" fill="white"/>
</svg>
