<svg width="32" height="33" viewBox="0 0 32 33" fill="none" xmlns="http://www.w3.org/2000/svg">
<path d="M2 9.5V4.5C2 3.39543 2.89543 2.5 4 2.5H9M2 23.5V28.5C2 29.6046 2.89543 30.5 4 30.5H9M30 9.5V4.5C30 3.39543 29.1046 2.5 28 2.5H23M30 23.5V28.5C30 29.6046 29.1046 30.5 28 30.5H23" stroke="white" stroke-linecap="round" stroke-linejoin="round"/>
<path d="M10.0229 15.4749C12.0717 13.1701 13.0961 11.1213 12.84 8.81641C12.84 8.81641 13.8644 11.6335 17.962 11.6335C22.0595 11.6335 22.3156 13.9384 22.3156 15.4749" stroke="white" stroke-linecap="round" stroke-linejoin="round"/>
<path d="M7.20571 13.3148C7.20571 9.27493 10.4806 6 14.5205 6H17.3056C21.3454 6 24.6203 9.27493 24.6203 13.3148V13.3148C24.6203 13.9013 24.6274 14.4875 24.6588 15.0732C24.7132 16.0882 24.7582 17.725 24.5508 18.5551C24.4437 18.9839 23.8099 18.8966 23.6739 19.3171C23.1552 20.9208 22.4283 22.4587 21.5052 23.8895L21.0624 24.5759C20.6333 25.2409 20.0286 25.7742 19.3151 26.1167V26.1167C17.1646 27.1492 14.6615 27.1492 12.5109 26.1167V26.1167C11.7975 25.7742 11.1927 25.2409 10.7637 24.5759L10.3209 23.8895C9.39779 22.4587 8.67084 20.9208 8.15218 19.3171C8.01621 18.8966 7.38236 18.9839 7.27524 18.5551C7.06782 17.725 7.11284 16.0882 7.16725 15.0732C7.19865 14.4875 7.20571 13.9013 7.20571 13.3148V13.3148Z" stroke="white" stroke-linecap="round" stroke-linejoin="round"/>
<rect x="11.8145" y="16.2441" width="2.04878" height="2.04878" rx="1.02439" fill="white"/>
<rect x="18.4731" y="16.2441" width="2.04878" height="2.04878" rx="1.02439" fill="white"/>
</svg>
