<svg width="24" height="24" viewBox="0 0 24 24" fill="none" xmlns="http://www.w3.org/2000/svg">
<g clip-path="url(#clip0)">
<path d="M23.9999 12.2758C23.9999 11.46 23.9325 10.6399 23.7885 9.8374H12.2406V14.4584H18.8535C18.5791 15.9487 17.6974 17.2671 16.4063 18.1049V21.1032H20.3516C22.6684 19.0132 23.9999 15.9267 23.9999 12.2758Z" fill="#4285F4"/>
<path d="M12.2408 24.0001C15.5427 24.0001 18.3274 22.9374 20.3562 21.1032L16.4109 18.1048C15.3133 18.8368 13.8962 19.2512 12.2453 19.2512C9.05125 19.2512 6.3431 17.1392 5.3714 14.2996H1.30017V17.3905C3.37852 21.4427 7.6117 24.0001 12.2408 24.0001Z" fill="#34A853"/>
<path d="M5.36688 14.2997C4.85404 12.8094 4.85404 11.1956 5.36688 9.7052V6.61426H1.30015C-0.436312 10.005 -0.436312 13.9999 1.30015 17.3907L5.36688 14.2997Z" fill="#FBBC04"/>
<path d="M12.2407 4.74893C13.9862 4.72247 15.6732 5.36623 16.9373 6.54794L20.4327 3.12188C18.2194 1.08477 15.2818 -0.0351984 12.2407 7.62441e-05C7.61169 7.62441e-05 3.37852 2.55749 1.30017 6.61408L5.3669 9.70502C6.33409 6.861 9.04674 4.74893 12.2407 4.74893Z" fill="#EA4335"/>
</g>
<defs>
<clipPath id="clip0">
<rect width="24" height="24" fill="white"/>
</clipPath>
</defs>
</svg>
