<svg width="48" height="48" viewBox="0 0 48 48" fill="none" xmlns="http://www.w3.org/2000/svg">
    <path d="M6 24L10 20M10 20L24 6L38 20M10 20V40C10 40.5304 10.2107 41.0391 10.5858 41.4142C10.9609 41.7893 11.4696 42 12 42H18M38 20L42 24M38 20V40C38 40.5304 37.7893 41.0391 37.4142 41.4142C37.0391 41.7893 36.5304 42 36 42H30M18 42C18.5304 42 19.0391 41.7893 19.4142 41.4142C19.7893 41.0391 20 40.5304 20 40V32C20 31.4696 20.2107 30.9609 20.5858 30.5858C20.9609 30.2107 21.4696 30 22 30H26C26.5304 30 27.0391 30.2107 27.4142 30.5858C27.7893 30.9609 28 31.4696 28 32V40C28 40.5304 28.2107 41.0391 28.5858 41.4142C28.9609 41.7893 29.4696 42 30 42M18 42H30" stroke="#CED0EA" stroke-width="1.5" stroke-linecap="round" stroke-linejoin="round"/>
</svg>
