<svg width="48" height="48" viewBox="0 0 48 48" fill="none" xmlns="http://www.w3.org/2000/svg">
    <path d="M25.6667 30.6667H24V24H22.3333M24 17.3333H24.0167M39 24C39 25.9698 38.612 27.9204 37.8582 29.7403C37.1044 31.5601 35.9995 33.2137 34.6066 34.6066C33.2137 35.9995 31.5601 37.1044 29.7403 37.8582C27.9204 38.612 25.9698 39 24 39C22.0302 39 20.0796 38.612 18.2597 37.8582C16.4399 37.1044 14.7863 35.9995 13.3934 34.6066C12.0005 33.2137 10.8956 31.5601 10.1418 29.7403C9.38799 27.9204 9 25.9698 9 24C9 20.0218 10.5804 16.2064 13.3934 13.3934C16.2064 10.5804 20.0218 9 24 9C27.9782 9 31.7936 10.5804 34.6066 13.3934C37.4196 16.2064 39 20.0218 39 24Z" stroke="#CED0EA" stroke-width="1.5" stroke-linecap="round" stroke-linejoin="round"/>
</svg>
