<svg width="99" height="99" viewBox="0 0 99 99" fill="none" xmlns="http://www.w3.org/2000/svg">
<path fill-rule="evenodd" clip-rule="evenodd" d="M49.0913 8.91248C48.7011 8.91248 47.9209 8.91248 47.5307 8.91248C46.3603 8.91248 45.58 8.91248 44.4096 9.29624C22.1719 11.9826 6.56653 32.3218 9.29748 54.5799C11.6383 73.0003 25.6832 87.1994 43.6294 89.5019C43.6294 87.5831 39.3379 84.5131 39.3379 84.5131C38.1675 83.3618 35.8267 81.8268 33.876 80.6755C33.876 80.6755 31.5352 78.3729 36.2168 76.4541C40.8984 74.5353 38.9478 73.0003 36.9971 71.4653C35.4365 69.9302 39.3379 68.7789 39.3379 68.7789C39.3379 68.7789 36.6069 67.6277 38.1675 66.4764C39.3379 65.3251 41.6787 64.9414 39.728 61.1038C38.1675 58.0337 38.1675 53.8123 43.2392 51.5098C44.4096 50.7423 45.1899 50.7423 47.1406 49.9747C48.311 49.591 49.0913 49.2072 49.8715 48.8235C54.5532 46.5209 54.5532 43.0671 52.6025 39.997C52.2123 38.8457 51.8222 38.0782 51.8222 37.6944V37.3107C52.2123 36.1594 53.3828 35.3919 54.163 34.6244C55.3334 33.4731 52.9926 32.3218 52.9926 32.3218C52.9926 32.3218 57.2841 30.7868 55.3334 29.2517C53.7729 27.7167 51.4321 26.1817 56.1137 23.8791C61.1855 22.3441 58.8446 20.0415 58.8446 20.0415C57.2841 18.8902 55.7236 18.1227 54.5532 16.9714C50.6518 13.9014 49.4814 10.8313 49.0913 8.91248ZM25.293 6.60993C30.7549 3.53985 36.9971 1.23729 43.6294 0.469775C44.7998 0.469775 45.9702 0.0860153 47.1406 0.0860153C72.8895 -1.44902 95.5174 17.739 98.6384 43.4508C100.199 56.4986 96.6878 69.5465 88.4949 79.908C80.3021 90.2695 68.598 96.7934 55.7236 98.7122C51.8222 99.0959 48.311 99.0959 44.4096 98.7122C33.4859 97.5609 23.3423 92.572 15.1495 84.8968C6.95667 77.2217 1.88491 66.8602 0.324368 55.3474C-2.01644 35.3919 8.51721 16.2039 25.293 6.60993Z" fill="#03D5E8"/>
</svg>
