<svg xmlns="http://www.w3.org/2000/svg" viewBox="0 0 637 206" width="200" height="60">
	<style>
		tspan { white-space:pre }
		.shp0 { fill: #eff2fc }
		.shp1 { fill: #2bbdf7 }
		.shp2 { fill: #2891f9 }
		.shp3 { fill: #2b6def }
	</style>
	<g id="Layer">
		<path id="SVGID_1_" fill-rule="evenodd" class="shp0" d="M360 61.8L377.6 61.8L377.6 153.5L361.2 153.5L361.2 90.6L334.2 135.7L325.9 135.7L298.9 90.4L298.9 153.5L282.6 153.5L282.6 61.8L300 61.8L329.9 111.9L360 61.8ZM578.2 144.5C571.2 137.4 567.3 127.7 567.6 117.7C567.3 107.6 571.2 97.9 578.2 90.9C585.3 83.7 594.9 79.8 604.9 80C618 79.7 630.2 86.8 636.5 98.5L623.4 106.2C620 99.1 612.7 94.6 604.8 95C598.9 94.8 593.2 97.2 589 101.4C584.9 105.7 582.7 111.5 582.8 117.4C582.7 123.4 584.9 129.2 589 133.5C593.2 137.7 598.9 140 604.8 139.9C612.7 140.1 620 135.8 623.6 128.7L636.8 136.3C630.4 148 618.2 155.2 605 155C595 155.2 585.4 151.5 578.2 144.5ZM538.5 153.6L538.5 81.8L553.8 81.8L553.8 153.5L538.5 153.6ZM539.2 68.3C537.3 66.5 536.3 64 536.3 61.4C536.3 58.8 537.3 56.3 539.2 54.5C541 52.6 543.5 51.5 546.1 51.5C548.7 51.5 551.2 52.6 553 54.5C556.8 58.4 556.8 64.6 552.9 68.5C549.2 72.2 543 72.2 539.2 68.3ZM524.6 96.7L507 96.7L507 131.1C507 140.2 512.9 140.1 524.6 139.5L524.6 153.5C501.2 156.4 491.8 149.9 491.8 131.1L491.8 96.7L478.7 96.7L478.7 81.8L491.8 81.8L491.8 61.8L507.1 61.8L507.1 81.8L524.7 81.8L524.6 96.7ZM450 81.8L465.3 81.8L465.3 153.5L450 153.5L450 143.2C444.3 151.2 435 155.8 425.3 155.4C415.8 155.5 406.8 151.6 400.4 144.5C393.6 137.3 389.9 127.6 390.1 117.7C389.8 107.7 393.5 98.1 400.3 90.9C406.7 83.8 415.8 79.9 425.3 80.1C435.1 79.6 444.4 84.1 450.1 92.1L450 81.8ZM427.9 140.6C433.9 140.7 439.6 138.4 443.9 134.2C448.2 129.8 450.5 123.8 450.3 117.7C450.4 111.6 448.1 105.7 443.9 101.4C435 92.6 420.8 92.6 411.9 101.4C407.6 105.7 405.3 111.6 405.5 117.7C405.3 123.9 407.6 129.8 411.9 134.2C416.1 138.4 421.7 140.7 427.6 140.6L427.9 140.6Z" />
	</g>
	<g id="Layer">
		<g id="Group-6">
			<path id="Path" class="shp1" d="M102.42 85.4L132 149.89L175.93 124.92L176.02 124.92L176.02 74.95L102.42 85.4L102.42 85.4Z" />
			<path id="Path-2" class="shp2" d="M232.76 37.47L205.35 27.33L176.02 24.97L176.02 74.95L176.02 74.95L176.02 180.68L176.02 180.68L220.01 205.68L255.1 135.29L232.85 67.56L232.76 37.47L232.76 37.47Z" />
			<path id="Path-3" class="shp1" d="M230.21 24.97L220.01 49.97L220.01 49.97L220.01 205.29L264 180.29L264 24.97L230.21 24.97L230.21 24.97Z" />
			<path id="Path-4" class="shp3" d="M220.01 0L176.02 24.97L220.01 49.97L264 24.97L220.01 0L220.01 0Z" />
			<path id="Path-5" class="shp2" d="M132 99.92L132 99.92L88.01 51.38L0 24.97L0 180.29L0 180.29L43.99 205.29L56.6 119.33L88.01 124.92L88.01 124.92L132 149.89L132 99.92L132 99.92L132 99.92Z" />
			<path id="Path-6" class="shp3" d="M43.99 0L0 24.97L132 99.92L151.94 88.63L176.02 74.95L43.99 0L43.99 0Z" />
			<path id="Path-7" class="shp1" d="M43.99 99.92L43.99 99.92L43.99 205.29L88.01 180.29L88.01 180.29L88.01 124.92L88.01 124.92L43.99 99.92L43.99 99.92Z" />
		</g>
	</g>
</svg>
