<svg width="48" height="48" viewBox="0 0 48 48" fill="none" xmlns="http://www.w3.org/2000/svg">
<path d="M15 17V7H7C6.44772 7 6 7.44772 6 8V17M15 17H6M15 17C15 19.4853 12.9853 21.5 10.5 21.5C8.01472 21.5 6 19.4853 6 17" stroke="#CED0EA" stroke-width="1.5"/>
<path d="M24 17V7H15V17M24 17H15M24 17C24 19.4853 21.9853 21.5 19.5 21.5C17.0147 21.5 15 19.4853 15 17" stroke="#CED0EA" stroke-width="1.5"/>
<path d="M33 17V7H24V17M33 17H24M33 17C33 19.4853 30.9853 21.5 28.5 21.5C26.0147 21.5 24 19.4853 24 17" stroke="#CED0EA" stroke-width="1.5"/>
<path d="M42 17V8C42 7.44772 41.5523 7 41 7H33V17M42 17H33M42 17C42 19.4853 39.9853 21.5 37.5 21.5C35.0147 21.5 33 19.4853 33 17" stroke="#CED0EA" stroke-width="1.5"/>
<path d="M9 21V42C9 42.5523 9.44772 43 10 43H37C37.5523 43 38 42.5523 38 42V21" stroke="#CED0EA" stroke-width="1.5"/>
<path d="M13 26C13 25.4477 13.4477 25 14 25H22C22.5523 25 23 25.4477 23 26V42C23 42.5523 22.5523 43 22 43H14C13.4477 43 13 42.5523 13 42V26Z" stroke="#CED0EA" stroke-width="1.5"/>
<path d="M27 26C27 25.4477 27.4477 25 28 25H33C33.5523 25 34 25.4477 34 26V30C34 30.5523 33.5523 31 33 31H28C27.4477 31 27 30.5523 27 30V26Z" stroke="#CED0EA" stroke-width="1.5"/>
</svg>
