<svg width="48" height="48" viewBox="0 0 48 48" fill="none" xmlns="http://www.w3.org/2000/svg">
    <path d="M12.535 33.6733C16.0324 31.6965 19.9826 30.6606 24 30.6667C28.1667 30.6667 32.0783 31.7583 35.465 33.6733M29 20.6667C29 21.9927 28.4732 23.2645 27.5355 24.2022C26.5979 25.1399 25.3261 25.6667 24 25.6667C22.6739 25.6667 21.4021 25.1399 20.4645 24.2022C19.5268 23.2645 19 21.9927 19 20.6667C19 19.3406 19.5268 18.0688 20.4645 17.1311C21.4021 16.1935 22.6739 15.6667 24 15.6667C25.3261 15.6667 26.5979 16.1935 27.5355 17.1311C28.4732 18.0688 29 19.3406 29 20.6667ZM39 24C39 25.9698 38.612 27.9204 37.8582 29.7403C37.1044 31.5601 35.9995 33.2137 34.6066 34.6066C33.2137 35.9995 31.5601 37.1044 29.7403 37.8582C27.9204 38.612 25.9698 39 24 39C22.0302 39 20.0796 38.612 18.2597 37.8582C16.4399 37.1044 14.7863 35.9995 13.3934 34.6066C12.0005 33.2137 10.8956 31.5601 10.1418 29.7403C9.38799 27.9204 9 25.9698 9 24C9 20.0218 10.5804 16.2064 13.3934 13.3934C16.2064 10.5804 20.0218 9 24 9C27.9782 9 31.7936 10.5804 34.6066 13.3934C37.4196 16.2064 39 20.0218 39 24Z" stroke="white" stroke-width="1.5" stroke-linecap="round" stroke-linejoin="round"/>
</svg>
