<svg width="18" height="27" viewBox="0 0 18 27" fill="none" xmlns="http://www.w3.org/2000/svg">
<path d="M13.375 5.64062C13.375 4.40985 12.8861 3.22949 12.0158 2.35921C11.1455 1.48892 9.96515 1 8.73438 1C7.5036 1 6.32324 1.48892 5.45296 2.35921C4.58267 3.22949 4.09375 4.40985 4.09375 5.64062V14.9219C4.09375 16.1526 4.58267 17.333 5.45296 18.2033C6.32324 19.0736 7.5036 19.5625 8.73438 19.5625C9.96515 19.5625 11.1455 19.0736 12.0158 18.2033C12.8861 17.333 13.375 16.1526 13.375 14.9219V5.64062Z" stroke="white" stroke-width="1.5" stroke-linecap="round" stroke-linejoin="round"/>
<path d="M4.09375 13.375H7.1875" stroke="white" stroke-width="1.5" stroke-linecap="round" stroke-linejoin="round"/>
<path d="M4.09375 10.2812H7.1875" stroke="white" stroke-width="1.5" stroke-linecap="round" stroke-linejoin="round"/>
<path d="M4.09375 7.1875H7.1875" stroke="white" stroke-width="1.5" stroke-linecap="round" stroke-linejoin="round"/>
<path d="M13.375 13.375H10.2812" stroke="white" stroke-width="1.5" stroke-linecap="round" stroke-linejoin="round"/>
<path d="M13.375 10.2812H10.2812" stroke="white" stroke-width="1.5" stroke-linecap="round" stroke-linejoin="round"/>
<path d="M13.375 7.1875H10.2812" stroke="white" stroke-width="1.5" stroke-linecap="round" stroke-linejoin="round"/>
<path d="M1 13.375V14.9219C1 16.9732 1.81487 18.9404 3.26535 20.3909C4.71582 21.8414 6.68309 22.6563 8.73438 22.6563C10.7857 22.6563 12.7529 21.8414 14.2034 20.3909C15.6539 18.9404 16.4688 16.9732 16.4688 14.9219V13.375" stroke="white" stroke-width="1.5" stroke-linecap="round" stroke-linejoin="round"/>
<path d="M8.73462 22.6562V25.75" stroke="white" stroke-width="1.5" stroke-linecap="round" stroke-linejoin="round"/>
<path d="M1 25.7501H16.4688" stroke="white" stroke-width="1.5" stroke-linecap="round" stroke-linejoin="round"/>
</svg>
