<svg width="28" height="28" viewBox="0 0 28 28" fill="none" xmlns="http://www.w3.org/2000/svg">
<path d="M3.64159 10.6376C2.59716 10.6376 1.90088 11.3338 1.90088 12.3783V15.8597C1.90088 16.9041 2.59716 17.6004 3.64159 17.6004H6.25266L11.4748 21.7781C12.3452 22.1263 13.3896 21.9522 13.9118 21.0818C14.0859 20.9078 14.0859 20.5596 14.0859 20.2115V8.02648C14.0859 6.98205 13.3896 6.28577 12.3452 6.28577C11.997 6.28577 11.8229 6.28577 11.4748 6.45984L6.25266 10.6376H3.64159Z" fill="white" stroke="white" stroke-width="1.5" stroke-linecap="round" stroke-linejoin="round"/>
<path d="M19.4822 11.8561C20.5266 12.9005 20.5266 14.4672 19.4822 15.5116" stroke="white" stroke-width="1.5" stroke-linecap="round" stroke-linejoin="round"/>
<path d="M22.2673 8.20056C25.4006 11.3338 25.4006 16.2078 22.2673 19.3411" stroke="white" stroke-width="1.5" stroke-linecap="round" stroke-linejoin="round"/>
<path d="M3.25488 24.9017L25.2556 2.901" stroke="#FC5D5B" stroke-width="5" stroke-linecap="round"/>
<path d="M2.57788 25.5786L24.5786 3.57788" stroke="white" stroke-width="2" stroke-linecap="round"/>
</svg>
