<svg width="32" height="32" viewBox="0 0 32 32" fill="none" xmlns="http://www.w3.org/2000/svg">
<path d="M8.03125 12.6339C10.763 9.56074 12.1288 8.82903 11.7873 5.75586C11.7873 5.75586 14.5005 8.51196 17.6166 8.51196C23.08 8.51196 23.4215 10.5851 23.4215 12.6339" stroke="white" stroke-linecap="round" stroke-linejoin="round"/>
<path d="M4.27428 11.753C4.27428 6.36657 8.64086 2 14.0273 2H17.7408C23.1272 2 27.4938 6.36657 27.4938 11.753V11.753C27.4938 12.5351 27.5032 13.3167 27.5451 14.0977C27.6176 15.4509 27.6777 17.6333 27.4011 18.7402C27.2583 19.3118 26.4131 19.1955 26.2318 19.7561C25.5403 21.8944 24.571 23.9449 23.3402 25.8527L22.7498 26.7678C22.1778 27.6545 21.3714 28.3656 20.4202 28.8223V28.8223C17.5527 30.1989 14.2153 30.1989 11.3479 28.8223V28.8223C10.3966 28.3656 9.59033 27.6545 9.01826 26.7678L8.42786 25.8527C7.19705 23.9449 6.22779 21.8944 5.53624 19.7561C5.35495 19.1955 4.50981 19.3118 4.36698 18.7402C4.09043 17.6333 4.15046 15.4509 4.223 14.0977C4.26487 13.3167 4.27428 12.5351 4.27428 11.753V11.753Z" stroke="white" stroke-linecap="round" stroke-linejoin="round"/>
<rect x="10.4199" y="15.6582" width="2.73171" height="2.73171" rx="1.36585" fill="white"/>
<rect x="19.2969" y="15.6582" width="2.73171" height="2.73171" rx="1.36585" fill="white"/>
<path d="M13 24C13 24 14 24.25 16 24.25C18 24.25 19 24 19 24" stroke="white" stroke-linecap="round" stroke-linejoin="round"/>
</svg>
