<svg width="32" height="33" viewBox="0 0 32 33" fill="none" xmlns="http://www.w3.org/2000/svg">
<path d="M8.03076 13.1339C10.7625 10.0607 12.1283 9.32903 11.7869 6.25586C11.7869 6.25586 14.5 9.01196 17.6161 9.01196C23.0795 9.01196 23.421 11.0851 23.421 13.1339" stroke="white" stroke-linecap="round" stroke-linejoin="round"/>
<path d="M4.27428 12.253C4.27428 6.86657 8.64086 2.5 14.0273 2.5H17.7408C23.1272 2.5 27.4938 6.86657 27.4938 12.253V12.253C27.4938 13.0351 27.5032 13.8167 27.5451 14.5977C27.6176 15.9509 27.6777 18.1333 27.4011 19.2402C27.2583 19.8118 26.4131 19.6955 26.2318 20.2561C25.5403 22.3944 24.571 24.4449 23.3402 26.3527L22.7498 27.2678C22.1778 28.1545 21.3714 28.8656 20.4202 29.3223V29.3223C17.5527 30.6989 14.2153 30.6989 11.3479 29.3223V29.3223C10.3966 28.8656 9.59033 28.1545 9.01826 27.2678L8.42786 26.3527C7.19705 24.4449 6.22779 22.3944 5.53624 20.2561C5.35495 19.6955 4.50981 19.8118 4.36698 19.2402C4.09043 18.1333 4.15046 15.9509 4.223 14.5977C4.26487 13.8167 4.27428 13.0351 4.27428 12.253V12.253Z" stroke="white" stroke-linecap="round" stroke-linejoin="round"/>
<rect x="10.4194" y="16.1582" width="2.73171" height="2.73171" rx="1.36585" fill="white"/>
<rect x="19.2974" y="16.1582" width="2.73171" height="2.73171" rx="1.36585" fill="white"/>
<path d="M13 24.5C13 24.5 14 24.75 16 24.75C18 24.75 19 24.5 19 24.5" stroke="white" stroke-linecap="round" stroke-linejoin="round"/>
</svg>
