<svg version="1.0" xmlns="http://www.w3.org/2000/svg"
 width="200px" height="60px" viewBox="0 0 926.000000 322.000000">

<g transform="translate(0.000000,322.000000) scale(0.100000,-0.100000)"
fill="#eff2fc" stroke="none">
<path d="M968 3098 l-3 -112 -84 -13 c-217 -34 -508 -171 -732 -344 -81 -63
-139 -117 -139 -130 0 -23 84 -183 142 -271 72 -107 203 -247 298 -319 126
-95 289 -164 443 -189 l77 -13 0 -98 0 -99 805 0 805 0 0 850 0 850 -805 0
-804 0 -3 -112z m324 -142 c222 -56 443 -190 621 -375 l69 -71 -44 -51 c-52
-62 -182 -179 -282 -254 -214 -161 -444 -246 -618 -229 l-68 6 0 57 0 56 118
0 c115 0 118 1 196 38 44 21 107 57 141 81 68 49 189 165 249 238 l38 48 -38
42 c-175 197 -413 318 -625 318 l-78 0 -3 -77 -3 -77 -65 -12 c-132 -25 -285
-98 -382 -184 -27 -23 -48 -49 -48 -58 0 -9 21 -60 47 -112 39 -78 63 -111
133 -181 89 -90 166 -137 266 -163 l49 -12 3 -64 c2 -34 -1 -67 -5 -71 -12
-12 -122 16 -197 50 -193 87 -373 284 -471 516 l-28 65 39 46 c46 57 153 146
235 196 95 58 204 99 322 122 l107 21 0 64 0 64 114 -6 c65 -4 153 -17 208
-31z m-60 -279 c37 -14 93 -44 125 -65 57 -39 131 -109 122 -115 -2 -2 -47
-39 -99 -83 -52 -44 -100 -83 -107 -87 -7 -5 -25 16 -49 55 -71 116 -131 167
-217 183 l-37 7 0 -231 c0 -187 -3 -231 -13 -231 -29 0 -137 81 -178 132 -23
29 -57 85 -75 123 l-34 70 45 42 c60 55 127 86 197 91 l58 4 0 71 0 70 98 -5
c71 -4 115 -12 164 -31z m1138 -533 c13 -13 11 -17 -15 -39 -136 -110 -465
-249 -766 -325 -207 -52 -483 -88 -574 -75 l-45 7 0 64 0 64 116 0 c207 0 392
52 598 168 91 50 272 180 370 265 l39 34 131 -74 c72 -41 138 -81 146 -89z" fill="#82ba30"/>
<path d="M3010 2330 l0 -561 158 3 157 3 3 433 2 433 168 -3 c191 -3 226 -14
269 -80 46 -69 53 -126 53 -470 l0 -318 155 0 155 0 0 358 c0 397 -6 449 -61
552 -38 72 -92 124 -164 156 -104 48 -163 54 -542 54 l-353 0 0 -560z"/>
<path d="M4183 2876 c3 -8 72 -218 152 -468 80 -249 160 -495 176 -545 l31
-93 227 0 227 0 148 458 c82 251 164 503 182 560 l32 102 -161 -2 -162 -3
-112 -375 c-61 -206 -119 -401 -128 -433 -9 -33 -19 -56 -23 -53 -3 4 -60 199
-127 434 l-122 427 -173 3 c-147 2 -172 0 -167 -12z"/>
<path d="M5492 2333 l3 -558 158 -3 157 -3 0 561 0 560 -160 0 -160 0 2 -557z"/>
<path d="M6000 2330 l0 -562 348 5 c423 6 468 14 581 105 86 70 131 174 150
346 17 151 -4 302 -60 421 -29 63 -120 154 -182 183 -110 52 -141 55 -499 60
l-338 4 0 -562z m604 295 c112 -41 170 -141 170 -295 0 -111 -23 -179 -79
-235 -57 -57 -114 -76 -257 -82 l-118 -6 0 323 0 322 118 -5 c75 -3 134 -11
166 -22z"/>
<path d="M7232 2333 l3 -558 158 -3 157 -3 0 561 0 560 -160 0 -160 0 2 -557z"/>
<path d="M8117 2883 c-7 -11 -437 -1103 -437 -1109 0 -2 69 -4 154 -4 l154 0
35 98 35 97 262 0 263 0 32 -95 32 -95 167 -3 168 -2 -6 22 c-3 13 -102 264
-219 558 l-213 535 -211 3 c-116 1 -214 -1 -216 -5z m303 -456 c49 -136 90
-251 90 -257 0 -6 -68 -10 -190 -10 -104 0 -190 3 -190 6 0 3 40 112 89 242
111 295 103 273 107 270 2 -2 44 -115 94 -251z"/>
<path d="M9123 1933 c-35 -7 -73 -59 -73 -100 0 -48 45 -93 94 -93 62 0 90 21
110 83 10 33 -20 86 -58 102 -20 8 -39 14 -43 14 -4 -1 -18 -4 -30 -6z m79
-40 c8 -10 18 -26 21 -36 7 -20 -8 -67 -22 -67 -16 0 -21 30 -9 50 17 26 -6
50 -48 50 l-34 0 0 -56 c0 -39 4 -54 12 -52 7 3 15 15 18 27 l5 23 14 -26 c8
-14 18 -26 23 -26 5 0 6 -4 3 -10 -11 -18 -56 -10 -80 15 -31 30 -32 73 -5
103 26 27 80 30 102 5z m-32 -33 c0 -5 -7 -10 -15 -10 -8 0 -15 5 -15 10 0 6
7 10 15 10 8 0 15 -4 15 -10z"/>
<path d="M1042 655 c-61 -19 -111 -61 -135 -114 -19 -40 -21 -65 -21 -206 0
-142 2 -165 21 -207 58 -128 249 -166 356 -70 37 34 54 62 71 120 7 20 4 22
-26 22 -29 0 -36 -5 -53 -42 -56 -116 -213 -120 -279 -8 -19 31 -21 51 -21
185 1 162 7 185 59 235 21 19 40 25 89 28 79 4 120 -19 148 -83 18 -41 23 -45
54 -45 19 0 35 2 35 4 0 2 -7 23 -15 47 -22 62 -79 116 -139 134 -60 18 -87
18 -144 0z"/>
<path d="M3525 661 c-78 -20 -140 -75 -160 -145 -10 -33 -15 -94 -15 -181 0
-192 27 -259 125 -308 80 -39 192 -25 259 34 58 50 71 101 71 274 0 162 -9
204 -52 256 -48 57 -153 89 -228 70z m123 -75 c69 -36 92 -98 92 -251 0 -192
-45 -265 -165 -265 -57 0 -99 23 -128 70 -20 32 -22 48 -22 190 0 177 8 208
64 246 41 28 115 33 159 10z"/>
<path d="M6162 652 c-66 -24 -106 -62 -129 -121 -26 -67 -26 -326 0 -393 46
-118 197 -169 318 -107 43 22 96 79 106 117 10 35 10 339 0 374 -4 15 -21 44
-39 63 -64 74 -163 99 -256 67z m165 -73 c61 -38 68 -64 68 -244 0 -133 -3
-165 -17 -192 -55 -100 -211 -98 -270 4 -40 67 -33 348 9 396 53 60 146 76
210 36z"/>
<path d="M6757 654 c-59 -18 -122 -79 -136 -131 -6 -21 -11 -105 -11 -188 0
-82 5 -167 11 -188 6 -21 28 -56 49 -77 101 -101 279 -83 360 37 22 32 25 49
28 140 l4 103 -116 0 -116 0 0 -30 0 -30 80 0 80 0 0 -57 c0 -102 -59 -163
-156 -163 -62 0 -111 29 -136 80 -15 29 -18 62 -18 185 0 123 3 156 18 185 26
52 74 80 137 80 66 0 112 -29 140 -87 18 -37 24 -42 54 -43 31 0 33 2 27 28
-31 125 -169 198 -299 156z"/>
<path d="M10 335 l0 -325 35 0 35 0 0 325 0 325 -35 0 -35 0 0 -325z"/>
<path d="M250 335 l0 -325 35 0 35 0 0 258 0 257 172 -258 c167 -251 172 -257
205 -257 l33 0 0 325 0 325 -35 0 -35 0 -2 -256 -3 -257 -170 256 c-164 247
-171 257 -202 257 l-33 0 0 -325z"/>
<path d="M1480 335 l0 -325 205 0 205 0 0 30 0 30 -170 0 -170 0 0 120 0 120
145 0 145 0 0 30 0 30 -145 0 -145 0 0 115 0 115 170 0 170 0 0 30 0 30 -205
0 -205 0 0 -325z"/>
<path d="M2030 335 l0 -325 30 0 29 0 3 133 3 132 125 5 c129 5 165 16 202 57
46 51 61 144 33 210 -40 94 -85 112 -277 113 l-148 0 0 -325z m293 251 c55
-23 72 -51 72 -117 0 -53 -3 -62 -33 -91 l-32 -33 -120 -3 -120 -4 0 131 0
131 100 0 c63 0 113 -5 133 -14z"/>
<path d="M2550 630 l0 -30 95 0 95 0 0 -295 0 -295 35 0 35 0 0 295 0 295 95
0 95 0 0 30 0 30 -225 0 -225 0 0 -30z"/>
<path d="M3130 335 l0 -325 35 0 35 0 0 325 0 325 -35 0 -35 0 0 -325z"/>
<path d="M3960 335 l0 -325 35 0 35 0 2 257 3 257 170 -257 c164 -248 171
-257 203 -257 l32 0 0 325 0 325 -35 0 -35 0 0 -256 0 -257 -170 257 c-168
254 -170 256 -205 256 l-35 0 0 -325z"/>
<path d="M4860 335 l0 -325 35 0 35 0 0 135 0 135 117 0 c144 0 189 17 230 87
47 81 33 182 -34 244 -44 41 -84 49 -239 49 l-144 0 0 -325z m327 239 c41 -30
59 -92 41 -146 -22 -69 -51 -82 -184 -86 l-114 -4 0 132 0 132 114 -4 c97 -2
119 -6 143 -24z"/>
<path d="M5440 335 l0 -325 35 0 35 0 0 145 0 145 78 0 77 0 73 -145 73 -145
40 0 c21 0 39 2 39 5 0 2 -31 64 -70 138 -38 74 -70 138 -70 143 0 6 18 18 40
28 120 53 121 249 1 313 -41 21 -56 23 -198 23 l-153 0 0 -325z m304 251 c46
-19 66 -52 66 -106 0 -92 -45 -120 -195 -120 l-105 0 0 120 0 120 100 0 c63 0
113 -5 134 -14z"/>
<path d="M7220 335 l0 -325 35 0 35 0 0 145 0 146 76 -3 77 -3 74 -142 75
-143 40 0 40 0 -77 146 c-42 80 -75 147 -73 148 2 1 18 8 36 16 104 41 135
192 56 279 -45 51 -87 61 -253 61 l-141 0 0 -325z m306 249 c60 -29 81 -102
48 -165 -23 -45 -67 -59 -184 -59 l-100 0 0 120 0 120 101 0 c73 0 111 -5 135
-16z"/>
<path d="M8001 638 c-13 -35 -201 -548 -217 -590 l-13 -38 37 0 c37 0 37 0 63
73 l25 72 144 0 143 0 25 -72 24 -73 39 0 c22 0 38 4 35 8 -2 4 -54 143 -114
307 -61 165 -113 308 -117 318 -11 26 -63 23 -74 -5z m101 -253 l57 -165 -120
0 c-67 0 -119 4 -117 9 2 5 28 79 58 165 30 86 57 156 60 156 3 0 31 -74 62
-165z"/>
<path d="M8430 335 l0 -325 35 0 35 0 0 243 0 242 88 -190 c84 -181 90 -190
118 -193 30 -3 31 -2 113 180 46 101 87 187 92 193 5 5 9 -89 9 -233 l0 -242
35 0 35 0 0 325 0 325 -37 0 -38 0 -100 -225 c-55 -124 -102 -225 -105 -225
-3 0 -52 101 -109 225 l-104 225 -33 0 -34 0 0 -325z"/>
</g>
</svg>
