<svg version="1.0" xmlns="http://www.w3.org/2000/svg"
 width="200" height="60" viewBox="0 0 444.000000 52.000000"
 preserveAspectRatio="xMidYMid meet">

<g transform="translate(0.000000,52.000000) scale(0.100000,-0.100000)"
fill="#eff2fc" stroke="none">
<path d="M4096 504 c-94 -29 -176 -143 -176 -244 0 -95 74 -203 156 -228 59
-17 82 -15 141 13 127 59 171 252 76 335 -18 17 -43 30 -54 30 -20 0 -20 0 -1
-27 66 -94 45 -235 -41 -280 -111 -57 -218 40 -204 185 8 93 61 173 142 215
37 20 25 20 -39 1z"/>
<path d="M4143 475 c-127 -59 -171 -252 -76 -335 18 -17 43 -30 54 -30 20 0
20 0 1 27 -66 94 -45 235 41 280 111 57 218 -40 204 -185 -8 -93 -60 -172
-142 -216 l-30 -16 30 6 c120 24 215 137 215 254 0 95 -74 203 -156 228 -59
17 -82 15 -141 -13z"/>
<path d="M63 344 c-33 -16 -63 -66 -63 -104 0 -61 60 -120 122 -120 37 0 88
37 105 78 21 50 2 107 -46 139 -40 27 -73 29 -118 7z m110 -52 c24 -21 23 -84
-3 -107 -46 -41 -123 -7 -123 54 0 68 73 99 126 53z"/>
<path d="M365 348 c-3 -7 -20 -59 -39 -116 -28 -83 -32 -104 -21 -108 18 -7
35 3 35 22 0 10 13 14 46 14 37 0 47 -4 51 -20 5 -20 43 -29 43 -10 0 6 -16
60 -36 120 -29 91 -38 110 -55 110 -11 0 -22 -6 -24 -12z m43 -115 c11 -32 10
-33 -19 -33 -27 0 -30 3 -24 23 4 12 9 30 12 41 6 22 17 12 31 -31z"/>
<path d="M575 335 c-14 -13 -25 -35 -25 -49 0 -31 43 -66 82 -66 35 0 47 -25
24 -48 -16 -16 -19 -16 -47 1 -37 20 -59 22 -59 4 0 -22 35 -47 71 -53 25 -4
41 0 62 16 51 41 26 120 -38 120 -12 0 -30 6 -40 14 -16 12 -17 16 -6 30 17
20 45 21 61 1 16 -19 50 -20 50 -1 0 22 -49 56 -82 56 -17 0 -39 -10 -53 -25z"/>
<path d="M800 240 c0 -113 1 -120 20 -120 19 0 20 7 20 120 0 113 -1 120 -20
120 -19 0 -20 -7 -20 -120z"/>
<path d="M963 348 c-12 -6 -26 -23 -32 -38 -14 -42 6 -73 56 -85 57 -14 74
-32 49 -51 -25 -18 -41 -18 -60 1 -8 8 -23 15 -34 15 -32 0 -15 -39 24 -57 67
-32 141 20 118 84 -9 27 -24 35 -86 48 -33 6 -39 40 -9 50 21 6 51 -3 51 -16
0 -5 11 -9 24 -9 19 0 23 4 19 20 -6 23 -51 50 -80 49 -10 0 -28 -5 -40 -11z"/>
<path d="M1304 347 c-2 -7 -3 -60 -2 -118 3 -96 4 -104 23 -104 17 0 20 8 23
48 3 46 4 47 38 47 27 0 34 4 34 20 0 16 -7 20 -35 20 -31 0 -35 3 -35 25 0
24 2 25 65 25 63 0 65 1 65 25 0 25 -1 25 -85 25 -62 0 -87 -4 -91 -13z"/>
<path d="M1603 344 c-33 -16 -63 -66 -63 -104 0 -61 60 -120 123 -120 38 0 91
41 104 83 17 51 -1 104 -46 134 -40 27 -73 29 -118 7z m110 -52 c24 -21 23
-84 -3 -107 -46 -41 -123 -7 -123 54 0 68 73 99 126 53z"/>
<path d="M1860 269 c0 -88 1 -92 30 -121 27 -26 36 -30 68 -25 22 4 46 17 60
32 19 23 22 37 22 116 0 82 -1 89 -20 89 -18 0 -20 -7 -20 -80 0 -67 -3 -83
-20 -100 -24 -24 -29 -24 -58 -4 -20 14 -22 24 -22 100 0 77 -2 84 -20 84 -19
0 -20 -7 -20 -91z"/>
<path d="M2130 240 c0 -113 1 -120 20 -120 18 0 20 7 20 76 0 41 4 73 9 70 5
-3 28 -37 51 -76 28 -47 48 -70 61 -70 18 0 19 9 19 121 0 109 -2 120 -17 117
-15 -3 -19 -16 -21 -78 l-3 -75 -49 78 c-35 54 -56 77 -70 77 -19 0 -20 -6
-20 -120z"/>
<path d="M2410 240 l0 -123 58 7 c69 8 103 30 121 82 12 34 11 44 -2 76 -20
47 -49 66 -120 74 l-57 7 0 -123z m122 53 c23 -20 24 -80 1 -105 -9 -10 -30
-18 -50 -18 l-33 0 0 70 0 70 32 0 c17 0 40 -7 50 -17z"/>
<path d="M2725 348 c-3 -7 -20 -59 -39 -116 -28 -83 -32 -104 -21 -108 18 -7
35 3 35 22 0 10 12 14 45 14 34 0 47 -5 55 -20 12 -22 40 -27 40 -8 0 7 -16
61 -36 120 -29 88 -39 108 -55 108 -11 0 -22 -6 -24 -12z m43 -115 c11 -32 10
-33 -20 -33 -23 0 -29 3 -24 16 3 9 9 27 12 41 8 28 17 21 32 -24z"/>
<path d="M2880 335 c0 -22 4 -25 35 -25 l35 0 0 -96 c0 -86 2 -95 18 -92 14 3
17 17 20 96 l3 92 29 0 c25 0 30 4 30 25 0 25 -1 25 -85 25 -84 0 -85 0 -85
-25z"/>
<path d="M3134 347 c-2 -7 -3 -60 -2 -118 3 -90 5 -104 21 -107 15 -3 17 8 17
117 0 102 -2 121 -15 121 -9 0 -18 -6 -21 -13z"/>
<path d="M3323 345 c-17 -7 -39 -27 -47 -44 -52 -100 33 -206 138 -171 95 31
102 178 11 216 -42 17 -61 17 -102 -1z m87 -40 c55 -28 52 -105 -4 -131 -29
-14 -37 -15 -62 -3 -55 27 -57 109 -4 136 32 16 35 16 70 -2z"/>
<path d="M3580 239 c0 -109 2 -120 18 -117 14 3 18 16 20 77 l3 75 49 -77 c35
-55 55 -77 70 -77 19 0 20 6 20 120 0 112 -1 120 -20 120 -17 0 -19 -8 -22
-77 l-3 -78 -50 77 c-74 115 -85 109 -85 -43z"/>
</g>
</svg>
