<svg version="1.0" xmlns="http://www.w3.org/2000/svg"
 width="200px" height="60px" viewBox="0 0 1631.000000 301.000000"
 preserveAspectRatio="xMidYMid meet">

<g transform="translate(0.000000,301.000000) scale(0.100000,-0.100000)"
fill="#ff4212" stroke="none">
<path d="M14654 3000 c-510 -54 -961 -367 -1188 -825 -111 -224 -150 -399
-150 -665 0 -138 4 -208 18 -275 88 -443 351 -807 711 -985 652 -322 1407 42
1654 797 44 135 62 241 68 399 7 167 -6 272 -48 399 -70 209 -207 379 -379
469 -85 45 -173 66 -279 66 l-83 0 79 -77 c216 -211 335 -524 320 -843 -9
-181 -41 -309 -117 -465 -177 -361 -531 -555 -873 -479 -436 97 -732 593 -678
1134 22 213 67 378 156 566 185 392 504 668 890 769 l90 24 -60 -1 c-33 0 -92
-4 -131 -8z"/>
<path d="M14938 2880 c-519 -61 -956 -505 -1068 -1086 -87 -453 43 -850 344
-1052 106 -71 177 -93 315 -99 l114 -6 -82 79 c-139 132 -230 290 -288 500
-26 94 -28 110 -27 299 0 218 8 262 73 430 107 279 354 506 606 560 455 96
875 -254 971 -809 22 -122 14 -350 -16 -500 -93 -470 -376 -864 -760 -1060
-97 -49 -208 -91 -305 -116 -74 -18 173 0 283 21 622 119 1109 636 1193 1266
17 126 6 413 -20 524 -157 681 -716 1121 -1333 1049z"/>
<path d="M585 2060 c-130 -21 -245 -75 -352 -166 -223 -191 -287 -530 -151
-804 78 -159 248 -297 428 -346 80 -22 279 -25 360 -5 157 37 324 154 414 289
123 186 141 451 43 657 -59 123 -180 246 -308 311 -111 56 -302 84 -434 64z
m259 -259 c112 -39 203 -127 248 -238 19 -49 23 -76 23 -173 0 -109 -2 -119
-32 -182 -83 -175 -264 -271 -450 -238 -228 39 -367 222 -350 460 12 175 101
299 262 365 78 32 217 35 299 6z"/>
<path d="M2173 2033 c-8 -21 -130 -308 -270 -638 -140 -330 -259 -610 -264
-623 l-9 -23 136 3 136 3 46 113 46 112 239 -2 239 -3 45 -112 45 -113 135 0
c85 0 133 4 131 10 -1 5 -127 302 -278 660 l-275 649 -43 1 c-40 0 -44 -2 -59
-37z m136 -650 c39 -98 71 -181 71 -185 0 -5 -68 -8 -151 -8 -83 0 -149 4
-147 9 47 125 145 361 149 361 4 0 39 -80 78 -177z"/>
<path d="M3575 2063 c-149 -20 -275 -105 -328 -222 -16 -35 -21 -66 -22 -136
0 -79 3 -97 28 -147 47 -97 113 -146 345 -259 230 -112 246 -127 239 -212 -7
-86 -70 -130 -184 -130 -63 0 -82 4 -147 37 -53 26 -89 53 -124 92 l-50 56
-90 -68 -91 -68 29 -40 c126 -182 343 -272 570 -237 150 23 264 101 322 219
29 59 32 74 32 156 0 120 -23 174 -108 254 -65 61 -129 97 -320 182 -65 30
-133 68 -152 85 -29 28 -34 39 -34 77 0 83 58 128 163 128 80 0 150 -33 206
-97 28 -31 44 -42 53 -36 8 4 48 34 91 67 l77 58 -18 30 c-30 53 -129 138
-194 168 -88 41 -193 56 -293 43z"/>
<path d="M5730 2059 c-70 -12 -163 -56 -215 -102 -107 -93 -141 -277 -75 -406
47 -94 134 -157 355 -259 88 -40 171 -83 184 -95 34 -32 53 -83 45 -120 -17
-81 -81 -121 -191 -121 -95 1 -176 40 -260 124 l-59 60 -87 -65 c-48 -36 -87
-68 -87 -71 0 -15 75 -107 116 -142 95 -84 253 -142 386 -142 73 0 183 25 243
55 67 33 142 108 174 175 23 48 26 68 26 160 0 98 -2 109 -30 159 -53 96 -146
160 -375 261 -166 72 -210 110 -210 178 0 40 36 91 75 108 92 38 216 4 298
-81 l45 -48 86 68 c47 36 86 69 86 72 0 3 -17 28 -37 56 -48 65 -138 130 -215
156 -75 24 -202 34 -278 20z"/>
<path d="M8683 1428 c-150 -354 -275 -651 -279 -660 -6 -17 4 -18 128 -18
l135 0 45 113 46 112 233 3 c148 1 236 -1 243 -8 5 -5 28 -56 51 -113 l41
-102 137 -3 136 -3 -39 93 c-21 51 -146 347 -278 658 l-240 565 -44 3 -43 2
-272 -642z m392 -44 c39 -97 72 -180 73 -185 2 -5 -64 -9 -147 -9 -83 0 -151
3 -151 8 0 15 142 362 149 362 3 0 38 -79 76 -176z"/>
<path d="M11793 2059 c-92 -15 -160 -48 -222 -105 -83 -76 -106 -131 -106
-254 0 -84 3 -101 27 -145 50 -95 148 -169 329 -250 217 -97 259 -131 259
-204 0 -132 -174 -188 -340 -109 -25 12 -74 50 -109 85 l-63 63 -88 -67 c-102
-77 -102 -71 -11 -167 106 -112 222 -168 373 -182 201 -18 394 69 463 209 51
105 53 243 5 338 -34 65 -134 145 -254 202 -307 146 -327 160 -329 230 -2 81
58 127 166 127 80 0 150 -33 207 -97 l40 -46 89 68 90 68 -28 41 c-107 154
-296 229 -498 195z"/>
<path d="M4610 1493 c0 -530 1 -550 21 -593 11 -25 32 -58 47 -74 34 -36 117
-76 160 -76 l32 0 0 528 c0 590 0 594 -67 671 -39 47 -120 91 -165 91 l-28 0
0 -547z"/>
<path d="M7200 1395 l0 -645 329 0 c202 0 340 4 357 10 72 28 133 105 148 188
l6 32 -285 0 -285 0 0 530 0 530 -135 0 -135 0 0 -645z"/>
<path d="M10000 1395 l0 -646 358 3 c351 3 358 3 417 27 44 18 78 42 126 90
83 83 104 137 103 261 0 108 -26 170 -96 236 l-50 46 31 32 c88 91 103 271 33
399 -47 88 -149 162 -254 187 -24 5 -184 10 -355 10 l-313 0 0 -645z m634 396
c95 -59 101 -198 10 -267 l-37 -29 -174 -3 -173 -3 0 166 0 167 168 -4 c156
-3 170 -5 206 -27z m26 -513 c65 -34 85 -67 85 -143 0 -76 -20 -109 -85 -142
-41 -21 -57 -23 -222 -23 l-178 0 0 165 0 165 178 0 c165 0 181 -2 222 -22z"/>
</g>
</svg>
