<?xml version="1.0" standalone="no"?>
<!DOCTYPE svg PUBLIC "-//W3C//DTD SVG 20010904//EN"
 "http://www.w3.org/TR/2001/REC-SVG-20010904/DTD/svg10.dtd">
<svg version="1.0" xmlns="http://www.w3.org/2000/svg"
 width="200px" height="60px" viewBox="0 0 1280.000000 243.000000"
 preserveAspectRatio="xMidYMid meet">

<g transform="translate(0.000000,243.000000) scale(0.100000,-0.100000)"
fill="#eff2fc" stroke="none">
<path d="M932 2415 c-170 -37 -335 -167 -408 -323 l-39 -81 -69 -22 c-88 -29
-199 -101 -259 -170 -92 -106 -157 -272 -157 -403 1 -128 52 -283 124 -371
l34 -41 -14 -54 c-18 -71 -18 -211 1 -284 76 -291 349 -484 650 -461 l80 7 30
-32 c48 -53 143 -108 229 -136 115 -37 257 -37 372 0 160 51 287 161 357 308
38 77 45 87 74 92 74 15 197 88 269 160 108 108 166 235 179 386 12 136 -41
311 -124 414 -19 24 -29 46 -26 55 18 48 27 125 23 206 -14 249 -176 461 -418
546 -53 19 -89 23 -192 24 l-126 2 -59 47 c-154 124 -346 171 -531 131z m295
-174 c56 -22 123 -62 123 -73 0 -3 -114 -72 -253 -152 -183 -105 -257 -153
-265 -172 -8 -17 -12 -128 -12 -364 0 -187 -2 -340 -4 -340 -7 0 -179 100
-194 113 -11 9 -13 73 -10 331 4 295 6 326 25 377 55 149 166 252 314 294 74
21 207 14 276 -14z m552 -180 c83 -26 137 -60 198 -123 57 -61 89 -118 109
-193 16 -57 19 -185 5 -185 -5 0 -121 65 -259 145 -137 80 -259 145 -271 145
-17 0 -397 -211 -598 -332 l-33 -20 0 120 0 120 208 120 c294 170 341 195 392
208 69 19 179 17 249 -5z m-1319 -531 c0 -274 2 -302 18 -318 9 -9 149 -93
311 -186 l293 -169 -43 -27 c-24 -15 -71 -42 -104 -60 l-60 -33 -260 149
c-207 118 -272 161 -321 209 -184 182 -178 469 13 645 45 41 124 90 146 90 4
0 7 -135 7 -300z m1328 18 c221 -128 273 -162 317 -210 166 -179 163 -452 -8
-622 -44 -44 -138 -106 -162 -106 -3 0 -5 133 -5 296 0 166 -4 303 -9 313 -6
10 -145 96 -310 192 -170 98 -297 177 -292 182 17 17 176 106 190 106 8 1 134
-68 279 -151z m-458 -102 l125 -72 3 -151 3 -150 -127 -73 c-70 -40 -132 -73
-139 -73 -7 0 -69 33 -139 73 l-127 73 3 150 3 151 125 73 c69 40 130 73 135
72 6 0 66 -33 135 -73z m345 -199 l90 -53 3 -324 c2 -302 1 -329 -18 -384 -55
-164 -191 -279 -364 -308 -107 -18 -251 17 -331 80 l-24 19 241 138 c133 76
253 149 267 161 l26 22 3 351 c1 193 6 351 10 351 4 0 48 -24 97 -53z m-215
-424 l0 -118 -258 -147 c-318 -181 -306 -175 -391 -190 -192 -33 -390 70 -478
249 -34 69 -38 85 -41 176 -3 55 -1 97 4 95 375 -217 511 -291 533 -291 16 0
143 67 321 171 162 93 298 171 303 171 4 1 7 -52 7 -116z"/>
<path d="M3768 2415 c-276 -46 -494 -213 -591 -452 -57 -141 -62 -182 -62
-528 1 -297 2 -325 22 -397 80 -282 252 -460 528 -544 85 -26 101 -28 285 -28
185 0 200 1 285 27 297 93 476 289 542 597 15 70 18 132 18 355 0 279 -5 323
-47 455 -76 238 -237 400 -475 479 -151 51 -339 64 -505 36z m362 -294 c174
-55 279 -193 310 -406 15 -111 12 -468 -5 -569 -30 -169 -113 -293 -238 -354
-78 -38 -146 -52 -250 -52 -199 0 -348 84 -427 239 -56 112 -62 162 -58 496 4
296 4 301 30 369 63 165 162 252 333 292 79 18 221 11 305 -15z"/>
<path d="M10369 2363 c-28 -75 -669 -1863 -669 -1868 0 -3 76 -5 169 -5 l169
0 66 205 67 205 391 -2 392 -3 66 -200 65 -200 169 -3 168 -2 -5 22 c-4 13
-156 440 -339 950 l-333 928 -183 0 -182 0 -11 -27z m346 -717 c80 -253 145
-463 145 -468 0 -4 -135 -8 -300 -8 -165 0 -300 3 -300 8 0 7 285 904 296 932
4 8 8 11 10 5 2 -5 69 -217 149 -469z"/>
<path d="M11630 2255 l0 -135 205 0 205 0 0 -680 0 -680 -205 0 -205 0 0 -135
0 -135 583 2 582 3 3 133 3 132 -206 0 -205 0 0 680 0 680 203 2 202 3 3 133
3 132 -586 0 -585 0 0 -135z"/>
<path d="M5774 1920 c-148 -23 -258 -88 -330 -194 l-34 -51 0 108 0 107 -160
0 -160 0 0 -940 0 -940 168 2 167 3 5 333 5 332 35 -47 c82 -111 216 -168 390
-167 265 1 468 141 547 379 26 76 27 92 31 313 3 192 1 247 -13 310 -48 221
-197 385 -396 436 -73 19 -192 26 -255 16z m103 -275 c96 -29 168 -99 204
-199 40 -116 35 -430 -9 -530 -27 -60 -86 -123 -146 -154 -73 -37 -207 -43
-287 -13 -78 30 -132 79 -171 159 l-33 67 0 220 c0 206 1 223 22 267 26 56 94
133 137 155 84 44 193 55 283 28z"/>
<path d="M7213 1919 c-244 -29 -418 -165 -497 -387 -30 -86 -31 -89 -34 -317
-3 -181 0 -244 12 -296 52 -225 201 -375 431 -435 96 -25 314 -25 405 0 101
27 184 72 251 133 55 51 126 140 117 147 -1 2 -48 28 -102 59 l-100 56 -58
-54 c-108 -100 -249 -147 -376 -125 -81 14 -115 31 -170 83 -52 50 -80 122
-89 223 l-6 74 473 0 472 0 -4 198 c-4 181 -7 202 -30 264 -57 151 -142 250
-271 313 -123 60 -273 83 -424 64z m215 -234 c132 -40 212 -166 212 -338 l0
-37 -321 0 -322 0 7 75 c11 120 48 202 113 252 77 59 206 79 311 48z"/>
<path d="M8855 1920 c-76 -10 -149 -38 -206 -78 -42 -28 -65 -56 -117 -142
l-22 -35 0 113 0 112 -160 0 -160 0 2 -697 3 -698 168 -3 167 -2 0 449 c0 420
1 453 20 513 35 113 120 176 251 186 130 9 233 -46 280 -150 l24 -53 3 -473 3
-472 167 2 167 3 0 505 c0 447 -2 512 -17 567 -48 174 -143 281 -294 331 -70
24 -195 34 -279 22z"/>
</g>
</svg>
