<svg width="32" height="33" viewBox="0 0 32 33" fill="none" xmlns="http://www.w3.org/2000/svg">
<path d="M10.521 11.5607C12.399 9.44788 13.3381 7.56984 13.1033 5.45703C13.1033 5.45703 14.0423 8.03935 17.7984 8.03935C21.5545 8.03935 21.7893 10.1522 21.7893 11.5607" stroke="white" stroke-linecap="round" stroke-linejoin="round"/>
<path d="M7.93845 9.5802C7.93845 5.87702 10.9405 2.875 14.6436 2.875H17.1967C20.8998 2.875 23.9019 5.87702 23.9019 9.5802V9.5802C23.9019 10.1179 23.9083 10.6552 23.9371 11.1921C23.987 12.1225 24.0283 13.6229 23.8381 14.3839C23.7399 14.7769 23.1589 14.6969 23.0343 15.0823C22.5588 16.5524 21.8925 17.9621 21.0463 19.2737L20.6404 19.9029C20.2471 20.5125 19.6927 21.0013 19.0387 21.3153V21.3153C17.0674 22.2617 14.7729 22.2617 12.8016 21.3153V21.3153C12.1476 21.0013 11.5932 20.5125 11.1999 19.9029L10.794 19.2737C9.94785 17.9621 9.28148 16.5524 8.80604 15.0823C8.6814 14.6969 8.10037 14.7769 8.00218 14.3839C7.81205 13.6229 7.85332 12.1225 7.90319 11.1921C7.93197 10.6552 7.93845 10.1179 7.93845 9.5802V9.5802Z" stroke="white" stroke-linecap="round" stroke-linejoin="round"/>
<rect x="12.1631" y="12.2656" width="1.87805" height="1.87805" rx="0.939024" fill="white"/>
<rect x="18.2671" y="12.2656" width="1.87805" height="1.87805" rx="0.939024" fill="white"/>
<path d="M10.3772 24.8185C11.3604 25.1112 13.1942 25.5 16 25.5C18.8058 25.5 20.6397 25.1112 21.6228 24.8185M10.3772 24.8185C9.7883 24.6432 8.18013 24.5 7.56571 24.5C5.4363 24.5 3.5458 25.8626 2.87242 27.8827L2.29773 30.2655C2.146 30.8946 2.62271 31.5 3.26986 31.5H5.5M10.3772 24.8185C10.3772 24.8185 13.5 28.5 16 28.5C18.5 28.5 21.6228 24.8185 21.6228 24.8185M21.6228 24.8185C22.2117 24.6432 23.8199 24.5 24.4343 24.5C26.5637 24.5 28.4542 25.8626 29.1276 27.8827L29.7023 30.2655C29.854 30.8946 29.3773 31.5 28.7301 31.5H26.5" stroke="white" stroke-linecap="round" stroke-linejoin="round"/>
</svg>
