<svg width="48" height="48" viewBox="0 0 48 48" fill="none" xmlns="http://www.w3.org/2000/svg">
    <path d="M8.16663 8.16663H39.8333V12.9166H8.16663V8.16663Z" stroke="#CED0EA" stroke-width="1.5" stroke-linecap="round" stroke-linejoin="round"/>
    <path d="M8.16663 31.125H9.74996V12.9166H38.25V31.125H39.8333" stroke="#CED0EA" stroke-width="1.5" stroke-linecap="round" stroke-linejoin="round"/>
    <path d="M19.25 28.75H28.75M19.25 28.75H17.6666H28.75M19.25 28.75V22.4166H28.75V28.75M19.25 28.75L24 31.9166M28.75 28.75H30.3333M28.75 28.75L24 31.9166M17.6666 35.0833H19.25L24 31.9166M30.3333 35.0833H28.75L24 31.9166" stroke="#CED0EA" stroke-width="1.5" stroke-linecap="round" stroke-linejoin="round"/>
    <path d="M33.5 12.9166V12.1666C33.9142 12.1666 34.25 12.5024 34.25 12.9166H33.5ZM14.5 12.9166H13.75C13.75 12.5024 14.0858 12.1666 14.5 12.1666V12.9166ZM37.0625 39.8334L37.7464 39.5256C37.8509 39.7577 37.8305 40.0269 37.6923 40.2406C37.5541 40.4543 37.317 40.5834 37.0625 40.5834L37.0625 39.8334ZM10.9375 39.8333L10.9375 40.5833C10.683 40.5833 10.4459 40.4543 10.3077 40.2405C10.1695 40.0268 10.1491 39.7576 10.2536 39.5255L10.9375 39.8333ZM33.7789 32.5365L34.4629 32.2287L33.7789 32.5365ZM14.2211 32.5365L13.5371 32.2287L14.2211 32.5365ZM32.75 31.237V12.9166H34.25V31.237H32.75ZM33.5 13.6666H14.5V12.1666H33.5V13.6666ZM15.25 12.9166V31.237H13.75V12.9166H15.25ZM14.905 32.8442L11.6214 40.1411L10.2536 39.5255L13.5371 32.2287L14.905 32.8442ZM10.9375 39.0833L37.0625 39.0834L37.0625 40.5834L10.9375 40.5833L10.9375 39.0833ZM36.3786 40.1411L33.095 32.8442L34.4629 32.2287L37.7464 39.5256L36.3786 40.1411ZM34.25 31.237C34.25 31.5789 34.3225 31.9169 34.4629 32.2287L33.095 32.8442C32.8676 32.3389 32.75 31.7911 32.75 31.237H34.25ZM15.25 31.237C15.25 31.7911 15.1324 32.3389 14.905 32.8442L13.5371 32.2287C13.6775 31.9169 13.75 31.5789 13.75 31.237H15.25Z" fill="#CED0EA"/>
</svg>
