<svg width="25" height="24" viewBox="0 0 25 24" fill="none" xmlns="http://www.w3.org/2000/svg">
<g clip-path="url(#clip0)">
<path d="M12.5018 23.9998C19.1292 23.9998 24.5017 18.6273 24.5017 11.9999C24.5017 5.37254 19.1292 0 12.5018 0C5.87449 0 0.501953 5.37254 0.501953 11.9999C0.501953 18.6273 5.87449 23.9998 12.5018 23.9998Z" fill="#55ACEE"/>
<path d="M19.8518 8.62338C19.3376 8.85141 18.7844 9.00564 18.2043 9.07452C18.7966 8.71964 19.2511 8.15813 19.4657 7.48795C18.9114 7.81673 18.2973 8.05524 17.6442 8.1838C17.121 7.62657 16.3755 7.27832 15.5501 7.27832C13.9663 7.27832 12.6818 8.56285 12.6818 10.1466C12.6818 10.3715 12.7072 10.5903 12.7564 10.8003C10.3726 10.6808 8.25897 9.53892 6.84417 7.80304C6.59732 8.22658 6.45571 8.71964 6.45571 9.24522C6.45571 10.2401 6.96246 11.1184 7.73168 11.6327C7.26172 11.6179 6.81914 11.4889 6.43261 11.2735C6.43239 11.2857 6.43239 11.2979 6.43239 11.3099C6.43239 12.6996 7.42151 13.8588 8.73342 14.1221C8.49298 14.188 8.23907 14.2229 7.97789 14.2229C7.79264 14.2229 7.61317 14.2051 7.43819 14.1718C7.80312 15.311 8.86219 16.1404 10.1176 16.1637C9.13578 16.9331 7.89917 17.3915 6.55496 17.3915C6.32394 17.3915 6.09506 17.3781 5.87109 17.3513C7.13979 18.1655 8.64785 18.6401 10.2676 18.6401C15.5434 18.6401 18.4286 14.2695 18.4286 10.4788C18.4286 10.3546 18.4259 10.2307 18.4203 10.1079C18.9812 9.70363 19.4674 9.19859 19.8518 8.62338Z" fill="#F1F2F2"/>
</g>
<defs>
<clipPath id="clip0">
<rect width="24" height="24" fill="white" transform="translate(0.5)"/>
</clipPath>
</defs>
</svg>
