<svg width="30" height="31" viewBox="0 0 30 31" fill="none" xmlns="http://www.w3.org/2000/svg">
<path d="M9.52148 10.0607C11.3995 7.94788 12.3386 6.06984 12.1038 3.95703C12.1038 3.95703 13.0428 6.53935 16.7989 6.53935C20.555 6.53935 20.7898 8.65215 20.7898 10.0607" stroke="white" stroke-linecap="round" stroke-linejoin="round"/>
<path d="M6.93845 8.0802C6.93845 4.37702 9.94047 1.375 13.6436 1.375H16.1967C19.8998 1.375 22.9019 4.37702 22.9019 8.0802V8.0802C22.9019 8.61788 22.9083 9.15523 22.9371 9.69214C22.987 10.6225 23.0283 12.1229 22.8381 12.8839C22.7399 13.2769 22.1589 13.1969 22.0343 13.5823C21.5588 15.0524 20.8925 16.4621 20.0463 17.7737L19.6404 18.4029C19.2471 19.0125 18.6927 19.5013 18.0387 19.8153V19.8153C16.0674 20.7617 13.7729 20.7617 11.8016 19.8153V19.8153C11.1476 19.5013 10.5932 19.0125 10.1999 18.4029L9.79403 17.7737C8.94785 16.4621 8.28148 15.0524 7.80604 13.5823C7.6814 13.1969 7.10037 13.2769 7.00218 12.8839C6.81205 12.1229 6.85332 10.6225 6.90319 9.69214C6.93197 9.15523 6.93845 8.61788 6.93845 8.0802V8.0802Z" stroke="white" stroke-linecap="round" stroke-linejoin="round"/>
<rect x="11.1631" y="10.7656" width="1.87805" height="1.87805" rx="0.939024" fill="white"/>
<rect x="17.2666" y="10.7656" width="1.87805" height="1.87805" rx="0.939024" fill="white"/>
<path d="M9.37717 23.3185C10.3604 23.6112 12.1942 24 15 24C17.8058 24 19.6397 23.6112 20.6228 23.3185M9.37717 23.3185C8.7883 23.1432 7.18013 23 6.56571 23C4.4363 23 2.5458 24.3626 1.87242 26.3827L1.29773 28.7655C1.146 29.3946 1.62271 30 2.26986 30H4.5M9.37717 23.3185C9.37717 23.3185 12.5 27 15 27C17.5 27 20.6228 23.3185 20.6228 23.3185M20.6228 23.3185C21.2117 23.1432 22.8199 23 23.4343 23C25.5637 23 27.4542 24.3626 28.1276 26.3827L28.7023 28.7655C28.854 29.3946 28.3773 30 27.7301 30H25.5" stroke="white" stroke-linecap="round" stroke-linejoin="round"/>
</svg>
