<svg width="25" height="18" viewBox="0 0 25 18" fill="none" xmlns="http://www.w3.org/2000/svg">
<path d="M2.76786 5.41964C1.70714 5.41964 1 6.12679 1 7.1875V10.7232C1 11.7839 1.70714 12.4911 2.76786 12.4911H5.41964L10.7232 16.7339C11.6071 17.0875 12.6679 16.9107 13.1982 16.0268C13.375 15.85 13.375 15.4964 13.375 15.1429V2.76786C13.375 1.70714 12.6679 1 11.6071 1C11.2536 1 11.0768 1 10.7232 1.17679L5.41964 5.41964H2.76786Z" stroke="white" stroke-width="1.5" stroke-linecap="round" stroke-linejoin="round"/>
<path d="M18.8553 6.65698C19.9161 7.7177 19.9161 9.30877 18.8553 10.3695" stroke="white" stroke-width="1.5" stroke-linecap="round" stroke-linejoin="round"/>
<path d="M21.6838 2.94458C24.866 6.12672 24.866 11.0767 21.6838 14.2589" stroke="white" stroke-width="1.5" stroke-linecap="round" stroke-linejoin="round"/>
</svg>
