<svg width="16" height="16" viewBox="0 0 16 16" fill="none" xmlns="http://www.w3.org/2000/svg">
<path fill-rule="evenodd" clip-rule="evenodd" d="M14.0001 8.0001C14.0001 9.59142 13.3679 11.1176 12.2427 12.2428C11.1174 13.368 9.5913 14.0002 7.99998 14.0002C6.40865 14.0002 4.8825 13.368 3.75727 12.2428C2.63203 11.1176 1.99988 9.59142 1.99988 8.0001C1.99988 6.40877 2.63203 4.88262 3.75727 3.75739C4.8825 2.63215 6.40865 2 7.99998 2C9.5913 2 11.1174 2.63215 12.2427 3.75739C13.3679 4.88262 14.0001 6.40877 14.0001 8.0001ZM8.74999 5.00005C8.74999 5.19896 8.67097 5.38973 8.53031 5.53039C8.38966 5.67104 8.19889 5.75006 7.99998 5.75006C7.80106 5.75006 7.61029 5.67104 7.46964 5.53039C7.32898 5.38973 7.24996 5.19896 7.24996 5.00005C7.24996 4.80113 7.32898 4.61036 7.46964 4.46971C7.61029 4.32906 7.80106 4.25004 7.99998 4.25004C8.19889 4.25004 8.38966 4.32906 8.53031 4.46971C8.67097 4.61036 8.74999 4.80113 8.74999 5.00005ZM7.24996 7.25009C7.05105 7.25009 6.86028 7.3291 6.71962 7.46976C6.57897 7.61041 6.49995 7.80118 6.49995 8.0001C6.49995 8.19901 6.57897 8.38978 6.71962 8.53044C6.86028 8.67109 7.05105 8.75011 7.24996 8.75011V11.0001C7.24996 11.1991 7.32898 11.3898 7.46964 11.5305C7.61029 11.6711 7.80106 11.7502 7.99998 11.7502H8.74999C8.9489 11.7502 9.13967 11.6711 9.28033 11.5305C9.42098 11.3898 9.5 11.1991 9.5 11.0001C9.5 10.8012 9.42098 10.6105 9.28033 10.4698C9.13967 10.3292 8.9489 10.2501 8.74999 10.2501V8.0001C8.74999 7.80118 8.67097 7.61041 8.53031 7.46976C8.38966 7.3291 8.19889 7.25009 7.99998 7.25009H7.24996Z" fill="#71727D"/>
</svg>
